<?xml version="1.0" encoding="utf-8"?>
<!-- Generator: Adobe Illustrator 24.0.0, SVG Export Plug-In . SVG Version: 6.00 Build 0)  -->
<svg version="1.1" id="Ebene_1" xmlns="http://www.w3.org/2000/svg" xmlns:xlink="http://www.w3.org/1999/xlink" x="0px" y="0px"
	 viewBox="0 0 176.5 33.9" style="enable-background:new 0 0 176.5 33.9;" xml:space="preserve">
<style type="text/css">
	.st0{fill-rule:evenodd;clip-rule:evenodd;fill:#969696;}
	.st1{fill-rule:evenodd;clip-rule:evenodd;fill:#646464;}
</style>
<g>
	<g>
		<path class="st0" d="M69.7,26.5c-6.5,4.8-16,7.4-24.1,7.4c-11.4,0-21.7-4.2-29.5-11.2c-0.6-0.6-0.1-1.3,0.7-0.9
			c8.4,4.9,18.8,7.8,29.5,7.8c7.2,0,15.2-1.5,22.5-4.6C69.8,24.5,70.7,25.7,69.7,26.5z"/>
		<path class="st0" d="M72.4,23.4c-0.8-1.1-5.5-0.5-7.6-0.3c-0.6,0.1-0.7-0.5-0.2-0.9c3.7-2.6,9.9-1.9,10.6-1c0.7,0.9-0.2,7-3.7,9.9
			c-0.5,0.5-1.1,0.2-0.8-0.4C71.4,28.9,73.2,24.5,72.4,23.4z"/>
		<path class="st1" d="M64.9,3.7V1.2c0-0.4,0.3-0.6,0.6-0.6l11.4,0c0.4,0,0.7,0.3,0.7,0.6v2.2c0,0.4-0.3,0.8-0.9,1.6l-5.9,8.4
			c2.2-0.1,4.5,0.3,6.5,1.4c0.4,0.3,0.6,0.6,0.6,1v2.7c0,0.4-0.4,0.8-0.8,0.6c-3.5-1.8-8.2-2-12.1,0c-0.4,0.2-0.8-0.2-0.8-0.6V16
			c0-0.4,0-1.1,0.4-1.8l6.9-9.8l-6,0C65.2,4.4,64.9,4.1,64.9,3.7z"/>
		<path class="st1" d="M23.2,19.6h-3.5c-0.3,0-0.6-0.3-0.6-0.6l0-17.8c0-0.4,0.3-0.6,0.7-0.6l3.2,0c0.3,0,0.6,0.3,0.6,0.6v2.3h0.1
			c0.8-2.3,2.4-3.3,4.6-3.3c2.2,0,3.5,1.1,4.5,3.3c0.8-2.3,2.8-3.3,4.8-3.3c1.5,0,3,0.6,4,2c1.1,1.5,0.9,3.7,0.9,5.6l0,11.3
			c0,0.4-0.3,0.6-0.7,0.6h-3.5c-0.4,0-0.6-0.3-0.6-0.6l0-9.5c0-0.8,0.1-2.6-0.1-3.3c-0.3-1.2-1-1.5-2-1.5c-0.8,0-1.7,0.6-2.1,1.5
			c-0.4,0.9-0.3,2.4-0.3,3.4V19c0,0.4-0.3,0.6-0.7,0.6h-3.5c-0.3,0-0.6-0.3-0.6-0.6l0-9.5c0-2,0.3-4.9-2.1-4.9
			c-2.5,0-2.4,2.9-2.4,4.9l0,9.5C23.9,19.4,23.6,19.6,23.2,19.6z"/>
		<path class="st1" d="M87.5,3.8c-2.6,0-2.7,3.5-2.7,5.7s0,6.8,2.7,6.8c2.7,0,2.8-3.8,2.8-6c0-1.5-0.1-3.3-0.5-4.7
			C89.4,4.3,88.6,3.8,87.5,3.8z M87.5,0.2c5.2,0,7.9,4.4,7.9,10.1c0,5.4-3.1,9.8-7.9,9.8c-5.1,0-7.8-4.4-7.8-9.9
			C79.6,4.5,82.4,0.2,87.5,0.2z"/>
		<path class="st1" d="M102.1,19.6h-3.5c-0.3,0-0.6-0.3-0.6-0.6l0-17.8c0-0.3,0.3-0.6,0.7-0.6l3.2,0c0.3,0,0.6,0.2,0.6,0.5v2.7h0.1
			c1-2.4,2.3-3.6,4.7-3.6c1.6,0,3.1,0.6,4.1,2.1c0.9,1.4,0.9,3.8,0.9,5.6v11.2c0,0.3-0.3,0.6-0.7,0.6h-3.5c-0.3,0-0.6-0.3-0.6-0.6
			V9.4c0-2,0.2-4.8-2.2-4.8c-0.8,0-1.6,0.6-2,1.4c-0.5,1.1-0.6,2.2-0.6,3.4V19C102.8,19.4,102.5,19.6,102.1,19.6z"/>
		<path class="st1" d="M59.3,19.6c-0.2,0.2-0.6,0.2-0.8,0.1c-1.2-1-1.4-1.4-2-2.3c-1.9,1.9-3.3,2.5-5.7,2.5c-2.9,0-5.2-1.8-5.2-5.4
			c0-2.8,1.5-4.7,3.7-5.7c1.9-0.8,4.5-1,6.5-1.2V7.1c0-0.8,0.1-1.8-0.4-2.5c-0.4-0.6-1.2-0.9-2-0.9c-1.3,0-2.5,0.7-2.8,2.1
			c-0.1,0.3-0.3,0.6-0.6,0.6l-3.4-0.4c-0.3-0.1-0.6-0.3-0.5-0.7c0.8-4,4.4-5.3,7.6-5.3H54c1.7,0,3.8,0.5,5.1,1.7
			c1.7,1.6,1.5,3.7,1.5,6v5.4c0,1.6,0.7,2.3,1.3,3.2c0.2,0.3,0.3,0.7,0,0.9C61.3,17.9,60,19,59.3,19.6L59.3,19.6z M55.8,11.1
			c0,1.4,0,2.5-0.7,3.7c-0.6,1-1.4,1.6-2.4,1.6c-1.3,0-2.1-1-2.1-2.5c0-3,2.7-3.5,5.2-3.5V11.1z"/>
		<path class="st1" d="M13.7,19.6c-0.2,0.2-0.6,0.2-0.8,0.1c-1.2-1-1.4-1.4-2-2.3c-1.9,1.9-3.3,2.5-5.7,2.5c-2.9,0-5.2-1.8-5.2-5.4
			c0-2.8,1.5-4.7,3.7-5.7c1.9-0.8,4.5-1,6.5-1.2V7.1c0-0.8,0.1-1.8-0.4-2.5C9.4,4,8.6,3.7,7.9,3.7c-1.3,0-2.5,0.7-2.8,2.1
			C5,6.1,4.8,6.4,4.5,6.4L1.1,6.1C0.8,6,0.5,5.8,0.6,5.3c0.8-4,4.4-5.3,7.6-5.3h0.3c1.7,0,3.8,0.5,5.1,1.7c1.7,1.6,1.5,3.7,1.5,6
			v5.4c0,1.6,0.7,2.3,1.3,3.2c0.2,0.3,0.3,0.7,0,0.9C15.7,17.9,14.4,19,13.7,19.6L13.7,19.6z M10.2,11.1c0,1.4,0,2.5-0.7,3.7
			c-0.6,1-1.4,1.6-2.4,1.6c-1.3,0-2.1-1-2.1-2.5c0-3,2.7-3.5,5.2-3.5V11.1z"/>
		<path class="st1" d="M159.8,26c0-0.5,0-0.9,0-1.3c0-0.4,0.2-0.6,0.6-0.6c0.7,0.1,1.8,0.2,2.5,0.1c1-0.2,1.6-0.9,2-1.8
			c0.6-1.3,0.9-2.4,1.2-3l-7.2-17.9c-0.1-0.3-0.2-0.9,0.4-0.9h2.5c0.5,0,0.7,0.3,0.8,0.6l5.2,14.5l5-14.5c0.1-0.3,0.3-0.6,0.8-0.6
			h2.4c0.6,0,0.6,0.6,0.4,0.9l-7.2,18.5c-0.9,2.5-2.2,6.4-4.9,7.1c-1.4,0.4-3.2,0.2-4.2-0.2C159.9,26.6,159.8,26.3,159.8,26z"/>
		<path class="st1" d="M156.4,18.5c0,0.3-0.3,0.6-0.6,0.6H154c-0.4,0-0.6-0.3-0.7-0.6l-0.2-1.2c-0.8,0.7-1.8,1.3-2.9,1.7
			c-2.1,0.8-4.5,0.9-6.6-0.3c-1.5-0.9-2.3-2.7-2.3-4.5c0-1.4,0.4-2.8,1.4-3.8c1.3-1.4,3.2-2.1,5.4-2.1c1.4,0,3.3,0.2,4.7,0.6V6.5
			c0-2.5-1-3.6-3.8-3.6c-2.1,0-3.7,0.3-6,1c-0.4,0-0.6-0.3-0.6-0.6V2c0-0.3,0.3-0.7,0.6-0.8c1.6-0.7,3.9-1.1,6.3-1.2
			c3.1,0,6.9,0.7,6.9,5.5V18.5z M153,15v-3.7c-1.2-0.3-3.2-0.5-3.9-0.5c-1.2,0-2.5,0.3-3.2,1c-0.5,0.5-0.8,1.3-0.8,2.1
			c0,1,0.3,2,1.1,2.4c0.9,0.6,2.3,0.5,3.7,0.2C151.2,16.2,152.4,15.6,153,15z"/>
		<path class="st1" d="M130.1,3c4,0,5,3.1,5,6.7c0,2.4-0.4,4.5-1.7,5.8c-0.9,0.9-2,1.2-3.5,1.2c-1.4,0-3.2-0.7-4.6-1.7V4.7
			C126.8,3.6,128.6,3,130.1,3z M124.8,26.7h-2.4c-0.3,0-0.6-0.3-0.6-0.6c0-8.3,0-16.6,0-24.9c0-0.3,0.3-0.6,0.6-0.6h1.8
			c0.4,0,0.6,0.3,0.7,0.6l0.2,1.3c1.7-1.5,3.9-2.5,6-2.5c5.9,0,7.8,4.8,7.8,9.9c0,5.4-3,9.7-8,9.7c-2.1,0-4.1-0.8-5.6-2.1v8.6
			C125.4,26.4,125.1,26.7,124.8,26.7z"/>
	</g>
</g>
</svg>
