<?xml version="1.0" encoding="utf-8"?>
<!-- Generator: Adobe Illustrator 24.0.0, SVG Export Plug-In . SVG Version: 6.00 Build 0)  -->
<svg version="1.1" id="Ebene_1" xmlns="http://www.w3.org/2000/svg" xmlns:xlink="http://www.w3.org/1999/xlink" x="0px" y="0px"
	 viewBox="0 0 47.8 47.8" style="enable-background:new 0 0 47.8 47.8;" xml:space="preserve">
<style type="text/css">
	.st0{fill:#84A1AA;}
	.st1{fill:#648D97;}
	.st2{fill:#FFFFFF;}
</style>
<title>5Element 1</title>
<g id="Ebene_2_1_">
	<g id="Ebene_1-2">
		<path class="st0" d="M23.9,47.8c13.2,0,23.9-10.7,23.9-23.9C47.8,10.7,37.1,0,23.9,0S0,10.7,0,23.9c0,0,0,0,0,0
			C0,37.1,10.7,47.8,23.9,47.8"/>
		<path class="st1" d="M38.7,23.9l3.4,3.3c0.5,0.4,0.6,1.1,0.4,1.7c-0.1,0.6-0.6,1.1-1.2,1.2l-4.6,1.2l1.3,4.5
			c0.3,0.9-0.2,1.9-1.2,2.2c-0.3,0.1-0.7,0.1-1,0l-4.5-1.3l-1.2,4.6c-0.1,0.6-0.6,1.2-1.2,1.3c-0.6,0.2-1.3,0-1.7-0.5l-3.3-3.4
			l-3.3,3.4c-0.4,0.5-1.1,0.7-1.7,0.5c-0.6-0.1-1.1-0.6-1.2-1.3l-1.2-4.6L12,38c-0.9,0.3-1.9-0.2-2.2-1.2c-0.1-0.3-0.1-0.7,0-1
			l1.3-4.5l-4.6-1.2c-0.6-0.1-1.1-0.6-1.2-1.2c-0.2-0.6,0-1.3,0.4-1.7l3.4-3.3l-3.4-3.3c-0.5-0.4-0.7-1.1-0.4-1.7
			c0.1-0.6,0.6-1.1,1.2-1.2l4.6-1.2L9.8,12C9.5,11.1,10,10.1,11,9.8c0.3-0.1,0.7-0.1,1,0l4.5,1.3l1.2-4.6c0.1-0.6,0.6-1.2,1.2-1.3
			c0.6-0.2,1.3,0,1.7,0.5l3.3,3.4l3.3-3.4C27.9,5,29,5,29.7,5.7c0.2,0.2,0.4,0.5,0.5,0.8l1.2,4.6l4.5-1.3C36.7,9.5,37.7,10,38,11
			c0.1,0.3,0.1,0.7,0,1l-1.3,4.5l4.6,1.2c0.6,0.1,1.1,0.6,1.2,1.2c0.2,0.6,0,1.3-0.4,1.7L38.7,23.9z"/>
		<path class="st2" d="M13.6,19.7h2.6c0.9-0.1,1.7,0.1,2.5,0.5c0.6,0.3,0.9,1,0.8,1.7c0,0.4-0.1,0.8-0.3,1.2
			c-0.2,0.3-0.5,0.5-0.9,0.6v0.1c0.3,0.1,0.5,0.2,0.7,0.3c0.2,0.1,0.4,0.4,0.5,0.6c0.1,0.3,0.2,0.7,0.2,1.1c0,0.7-0.3,1.4-0.8,1.8
			c-0.6,0.5-1.4,0.7-2.2,0.7h-3.1V19.7z M15.3,23.1h1c0.4,0,0.7,0,1.1-0.2c0.2-0.2,0.3-0.4,0.3-0.7c0-0.3-0.1-0.6-0.4-0.7
			c-0.3-0.2-0.7-0.2-1.1-0.2h-0.9V23.1z M15.3,24.5v2.2h1.1c0.4,0,0.8-0.1,1.1-0.3c0.2-0.2,0.3-0.5,0.3-0.8c0-0.3-0.1-0.6-0.3-0.8
			c-0.3-0.2-0.7-0.3-1.2-0.3H15.3z"/>
		<path class="st2" d="M24.8,28.1h-3.7v-1l1-0.5v-5.4l-1-0.5v-1h3.7v1l-1,0.5v5.4l1,0.5V28.1z"/>
		<path class="st2" d="M33.9,23.9c0,0.8-0.1,1.6-0.4,2.3c-0.3,0.6-0.7,1.1-1.3,1.5c-0.7,0.4-1.4,0.6-2.2,0.5c-0.8,0-1.5-0.2-2.2-0.5
			c-0.6-0.4-1-0.9-1.3-1.5c-0.3-0.7-0.4-1.5-0.4-2.3c0-0.8,0.1-1.5,0.4-2.3c0.3-0.6,0.7-1.1,1.3-1.5c0.7-0.4,1.4-0.6,2.2-0.5
			c0.8,0,1.5,0.2,2.2,0.5c0.6,0.4,1,0.9,1.3,1.5C33.8,22.4,33.9,23.1,33.9,23.9z M27.9,23.9c0,0.7,0.1,1.5,0.5,2.1
			c0.7,0.9,2,1,2.9,0.3c0.1-0.1,0.2-0.2,0.3-0.3c0.4-0.6,0.5-1.4,0.5-2.1c0-0.7-0.1-1.4-0.5-2.1c-0.4-0.5-1-0.8-1.6-0.8
			c-0.6-0.1-1.2,0.2-1.6,0.8C28,22.5,27.9,23.2,27.9,23.9L27.9,23.9z"/>
	</g>
</g>
</svg>
