<?xml version="1.0" encoding="utf-8"?>
<!-- Generator: Adobe Illustrator 24.0.0, SVG Export Plug-In . SVG Version: 6.00 Build 0)  -->
<svg version="1.1" id="Ebene_1" xmlns="http://www.w3.org/2000/svg" xmlns:xlink="http://www.w3.org/1999/xlink" x="0px" y="0px"
	 viewBox="0 0 22 19.3" style="enable-background:new 0 0 22 19.3;" xml:space="preserve">
<style type="text/css">
	.st0{clip-path:url(#SVGID_2_);}
	.st1{fill:#008EC3;}
</style>
<title>5Element 4</title>
<g id="Ebene_2_1_">
	<g id="Ebene_1-2">
		<g>
			<defs>
				<rect id="SVGID_1_" y="0" width="22" height="19.3"/>
			</defs>
			<clipPath id="SVGID_2_">
				<use xlink:href="#SVGID_1_"  style="overflow:visible;"/>
			</clipPath>
			<g class="st0">
				<path class="st1" d="M17.2,17c-0.3,0.2-0.7,0.2-1,0.2c-0.7,0-1.5-0.2-2.2-0.5c-1-0.4-2-0.6-3-0.6c-1,0-2,0.2-2.9,0.6
					c-0.7,0.3-1.5,0.4-2.2,0.5c-0.3,0-0.7,0-1-0.2c0,0,0-0.1,0-0.1c0-2.3,4-6.5,6.2-6.5s6.2,4.2,6.2,6.5
					C17.2,16.9,17.2,16.9,17.2,17 M11,8.2c-3.4,0-8.3,5.3-8.3,8.6c0,1.5,1.2,2.4,3.1,2.4c2.1,0,3.5-1.1,5.2-1.1s3.1,1.1,5.2,1.1
					c1.9,0,3.1-0.9,3.1-2.4C19.3,13.5,14.4,8.2,11,8.2 M6.7,1.9c0.1-0.1,0.1-0.2,0.2-0.2l0,0c0.3,0,0.9,0.5,1.2,1.5
					C8.3,3.8,8.3,4.4,8.1,5c0,0.1-0.1,0.2-0.2,0.2c-0.3,0-0.9-0.5-1.2-1.5C6.5,3.1,6.5,2.5,6.7,1.9 M7.9,6.9c0.2,0,0.3,0,0.5-0.1
					c1.3-0.3,2-2.2,1.5-4C9.4,1.1,8.1,0,6.9,0C6.8,0,6.6,0,6.5,0.1c-1.3,0.3-2,2.2-1.5,4C5.4,5.7,6.6,6.9,7.9,6.9 M20.2,8.3
					c-0.1,0.5-0.5,0.9-1,1l0,0c0,0-0.1,0-0.2-0.1c-0.1-0.3-0.2-0.6,0-1c0.1-0.5,0.5-0.9,1-1l0,0c0,0,0.1,0,0.2,0.1
					C20.3,7.6,20.3,8,20.2,8.3 M20.4,5.5c-0.2,0-0.3,0-0.5,0c-1.3,0.1-2.3,1-2.6,2.2c-0.5,1.2,0,2.7,1.3,3.2c0.1,0,0.1,0.1,0.2,0.1
					c0.2,0,0.3,0,0.5,0.1c1.3-0.1,2.3-1,2.6-2.2c0.5-1.2,0-2.7-1.3-3.2C20.5,5.6,20.5,5.6,20.4,5.5 M13.9,3.3c0.3-1,0.9-1.5,1.2-1.5
					l0,0c0,0,0.1,0.1,0.2,0.2c0.2,0.5,0.3,1.1,0.1,1.7c-0.3,1-0.9,1.5-1.2,1.5l0,0c0,0-0.1-0.1-0.1-0.2C13.8,4.5,13.7,3.9,13.9,3.3
					 M13.7,6.8c0.2,0,0.3,0,0.5,0c1.2,0,2.4-1.2,2.9-2.8c0.5-1.9-0.2-3.7-1.5-4C15.4,0,15.2,0,15.1,0l0,0c-1.2,0-2.4,1.1-2.9,2.8
					C11.7,4.7,12.4,6.5,13.7,6.8 M1.8,8.3C1.7,8,1.7,7.7,1.8,7.4C1.9,7.2,1.9,7.2,2,7.2H2c0.5,0.1,0.9,0.5,1,1
					c0.1,0.3,0.1,0.6,0,0.9c0,0.1-0.1,0.2-0.2,0.2C2.3,9.2,1.9,8.8,1.8,8.3 M3.2,11c1.3-0.4,2-1.8,1.5-3.1c0-0.1-0.1-0.1-0.1-0.2
					C4.4,6.5,3.3,5.6,2.1,5.5c-0.2,0-0.3,0-0.5,0c-1.3,0.4-2,1.8-1.5,3.1c0,0.1,0,0.1,0.1,0.2C0.4,10,1.5,10.9,2.8,11
					C2.9,11,3.1,11,3.2,11"/>
			</g>
		</g>
	</g>
</g>
</svg>
