<?xml version="1.0" encoding="utf-8"?>
<!-- Generator: Adobe Illustrator 24.0.0, SVG Export Plug-In . SVG Version: 6.00 Build 0)  -->
<svg version="1.1" id="Ebene_1" xmlns="http://www.w3.org/2000/svg" xmlns:xlink="http://www.w3.org/1999/xlink" x="0px" y="0px"
	 viewBox="0 0 22.5 22.5" style="enable-background:new 0 0 22.5 22.5;" xml:space="preserve">
<style type="text/css">
	.st0{fill:#FBCC64;}
</style>
<title>5Element 13</title>
<g id="Ebene_2_1_">
	<g id="Ebene_1-2">
		<path class="st0" d="M5.6,15.5c-1.6,0-2.8-1.3-2.8-2.8s1.3-2.8,2.8-2.8s2.8,1.3,2.8,2.8l0,0C8.4,14.2,7.2,15.5,5.6,15.5
			 M10.9,14.9c0.3-0.3,0.5-0.8,0.3-1.3c-0.2-0.5-0.2-1.2,0-1.7c0.1-0.5,0-0.9-0.3-1.3c-0.5-0.3-0.8-0.9-0.8-1.5
			C9.9,8.7,9.6,8.4,9.1,8.3C8.6,8.2,8,7.9,7.7,7.4C7.4,7.1,6.9,7,6.5,7.1c-0.5,0.2-1.1,0.2-1.7,0C4.3,7,3.9,7.1,3.6,7.4
			C3.2,7.9,2.7,8.2,2.1,8.3C1.7,8.4,1.3,8.7,1.2,9.2c0,0.6-0.4,1.1-0.8,1.5C0,11-0.1,11.5,0,11.9c0.2,0.5,0.2,1.2,0,1.7
			c-0.1,0.4,0,0.9,0.3,1.3c0.5,0.3,0.8,0.9,0.8,1.5c0.1,0.4,0.5,0.8,0.9,0.9c0.2,0,0.5,0.1,0.7,0.2v5l2.8-1.4l2.8,1.4v-5
			c0.2-0.1,0.5-0.2,0.7-0.2c0.4-0.1,0.8-0.5,0.9-0.9C10.1,15.7,10.4,15.2,10.9,14.9 M16.9,5.6V2.3l3.3,3.3H16.9z M21.9,4.3l-3.7-3.7
			C17.8,0.2,17.3,0,16.7,0h-9C6.5,0,5.6,1,5.6,2.1v3.5h2.1V2.1h7v4.6c0,0.6,0.5,1.1,1,1.1c0,0,0,0,0,0h4.6v12.7H9.8v2.1h10.5
			c1.2,0,2.1-0.9,2.1-2.1c0,0,0,0,0,0V5.8C22.5,5.2,22.3,4.7,21.9,4.3"/>
	</g>
</g>
</svg>
