<?xml version="1.0" encoding="utf-8"?>
<!-- Generator: Adobe Illustrator 24.0.0, SVG Export Plug-In . SVG Version: 6.00 Build 0)  -->
<svg version="1.1" id="Ebene_1" xmlns="http://www.w3.org/2000/svg" xmlns:xlink="http://www.w3.org/1999/xlink" x="0px" y="0px"
	 viewBox="0 0 35.3 38.1" style="enable-background:new 0 0 35.3 38.1;" xml:space="preserve">
<style type="text/css">
	.st0{fill:#004959;}
</style>
<title>5Element 6</title>
<g id="Ebene_2_1_">
	<g id="Ebene_1-2">
		<path class="st0" d="M6.4,20.8l2.1,2.8c0.4,0.6,1.2,0.7,1.8,0.2c0.3-0.2,0.5-0.6,0.5-0.9V5c0-0.8,0.6-1.4,1.4-1.4s1.4,0.6,1.4,1.4
			l0,0v13c0,0.7,0.6,1.2,1.2,1.2c0,0,0,0,0,0h0.5c0.7,0,1.2-0.5,1.3-1.2c0,0,0,0,0,0v-2.6c0-0.8,0.6-1.4,1.4-1.4s1.4,0.6,1.4,1.4
			l0,0V18c0,0.7,0.6,1.2,1.2,1.2c0,0,0,0,0,0h0.5c0.7,0,1.2-0.5,1.3-1.2v-1.5c0-0.8,0.6-1.4,1.4-1.4s1.4,0.6,1.4,1.4V18
			c0,0.7,0.6,1.2,1.2,1.2c0,0,0,0,0,0h0.5c0.7,0,1.2-0.5,1.3-1.2c0-0.8,0.6-1.4,1.4-1.4s1.4,0.6,1.4,1.4v6.3c0,0.1,0,0.2,0,0.3
			l-2.2,8.9c-0.2,0.6-0.7,1.1-1.4,1.1h-14c-0.5,0-0.9-0.2-1.2-0.6L4.2,22.5c-0.4-0.7-0.2-1.5,0.4-2C5.2,20.1,6,20.3,6.4,20.8
			 M28.3,13.4c-1.5-1.8-4.1-2.4-6.3-1.4c-1.2-1.1-2.8-1.7-4.5-1.5V5c-0.2-2.9-2.7-5.1-5.5-4.9C9.4,0.3,7.3,2.4,7.1,5v12
			c-1.6-0.6-3.5-0.3-4.9,0.7c-2.2,1.5-2.8,4.5-1.3,6.7c0,0.1,0.1,0.1,0.1,0.2L9.7,36c1,1.3,2.6,2.1,4.2,2.1h14
			c2.4,0,4.5-1.6,5.1-3.9l2.2-8.9c0.1-0.4,0.1-0.7,0.1-1.1V18c-0.1-2.9-2.5-5.1-5.4-5C29.3,13,28.7,13.1,28.3,13.4"/>
	</g>
</g>
</svg>
