<?xml version="1.0" encoding="utf-8"?>
<!-- Generator: Adobe Illustrator 24.0.0, SVG Export Plug-In . SVG Version: 6.00 Build 0)  -->
<svg version="1.1" id="Ebene_1" xmlns="http://www.w3.org/2000/svg" xmlns:xlink="http://www.w3.org/1999/xlink" x="0px" y="0px"
	 viewBox="0 0 22 19.3" style="enable-background:new 0 0 22 19.3;" xml:space="preserve">
<style type="text/css">
	.st0{clip-path:url(#SVGID_2_);}
	.st1{fill:#004959;}
</style>
<title>5Element 3</title>
<g id="Ebene_2_1_">
	<g id="Ebene_1-2">
		<g>
			<defs>
				<rect id="SVGID_1_" y="0" width="22" height="19.3"/>
			</defs>
			<clipPath id="SVGID_2_">
				<use xlink:href="#SVGID_1_"  style="overflow:visible;"/>
			</clipPath>
			<g class="st0">
				<path class="st1" d="M18.7,9.4l-7.5,7.7c-0.1,0.1-0.2,0.1-0.2,0.1c0,0,0,0-0.1-0.1L3.3,9.4C1.6,7.7,1.7,4.9,3.4,3.2
					C3.5,3.1,3.6,3.1,3.6,3C5.4,1.6,8,1.8,9.5,3.4L11,5l1.5-1.5C14,1.8,16.6,1.6,18.4,3c1.9,1.6,2.1,4.4,0.5,6.3
					C18.8,9.3,18.7,9.4,18.7,9.4 M19.7,1.4C17.1-0.7,13.3-0.4,11,2C8.7-0.4,4.9-0.7,2.3,1.4c-2.7,2.3-3.1,6.4-0.8,9.1
					c0.1,0.1,0.2,0.2,0.3,0.4l7.5,7.7c0.4,0.4,1,0.7,1.6,0.7c0.6,0,1.2-0.2,1.6-0.7l7.5-7.7c2.5-2.6,2.5-6.7-0.1-9.2
					C19.9,1.6,19.8,1.5,19.7,1.4"/>
			</g>
		</g>
	</g>
</g>
</svg>
