<?xml version="1.0" encoding="utf-8"?>
<!-- Generator: Adobe Illustrator 24.0.0, SVG Export Plug-In . SVG Version: 6.00 Build 0)  -->
<svg version="1.1" id="Ebene_1" xmlns="http://www.w3.org/2000/svg" xmlns:xlink="http://www.w3.org/1999/xlink" x="0px" y="0px"
	 viewBox="0 0 35.3 40.3" style="enable-background:new 0 0 35.3 40.3;" xml:space="preserve">
<style type="text/css">
	.st0{fill:#004959;}
</style>
<title>5Element 5</title>
<g id="Ebene_2_1_">
	<g id="Ebene_1-2">
		<path class="st0" d="M17.7,3.8c4.2,0,7.6,3.4,7.6,7.6s-3.4,7.6-7.6,7.6s-7.6-3.4-7.6-7.6l0,0C10.1,7.2,13.5,3.8,17.7,3.8
			 M17.7,22.7c6.3,0,11.3-5.1,11.3-11.3S23.9,0,17.7,0C11.4,0,6.3,5.1,6.3,11.3l0,0C6.3,17.6,11.4,22.7,17.7,22.7
			C17.7,22.7,17.7,22.7,17.7,22.7 M31.5,36.5H3.8v-2c0-3.8,3.1-6.8,6.8-6.8c1.1,0,3,1.3,7,1.3s5.9-1.3,7-1.3c3.8,0,6.8,3,6.8,6.8
			L31.5,36.5z M24.7,23.9c-2.3,0-3.3,1.3-7,1.3s-4.8-1.3-7-1.3C4.8,23.9,0,28.7,0,34.5v2c0,2.1,1.7,3.8,3.8,3.8h27.7
			c2.1,0,3.8-1.7,3.8-3.8v-2C35.3,28.7,30.5,23.9,24.7,23.9C24.7,23.9,24.7,23.9,24.7,23.9"/>
	</g>
</g>
</svg>
