<?xml version="1.0" encoding="utf-8"?>
<!-- Generator: Adobe Illustrator 24.0.0, SVG Export Plug-In . SVG Version: 6.00 Build 0)  -->
<svg version="1.1" id="Ebene_1" xmlns="http://www.w3.org/2000/svg" xmlns:xlink="http://www.w3.org/1999/xlink" x="0px" y="0px"
	 viewBox="0 0 32.9 32.9" style="enable-background:new 0 0 32.9 32.9;" xml:space="preserve">
<style type="text/css">
	.st0{fill:#FBB722;}
	.st1{fill:#FFFFFF;}
</style>
<title>6Element 4</title>
<g id="Ebene_2_1_">
	<g id="Ebene_1-2">
		<path class="st0" d="M16.5,32.9c9.1,0,16.5-7.4,16.5-16.5S25.6,0,16.5,0S0,7.4,0,16.5c0,0,0,0,0,0C0,25.6,7.4,32.9,16.5,32.9"/>
		<path class="st1" d="M21.1,23.4h-10v-2.1l3.6-3.6c0.7-0.8,1.3-1.4,1.7-1.9c0.4-0.4,0.7-0.9,1-1.4c0.2-0.4,0.3-0.9,0.3-1.3
			c0-0.5-0.1-0.9-0.5-1.3c-0.4-0.3-0.8-0.4-1.3-0.4c-0.6,0-1.1,0.1-1.6,0.4c-0.6,0.3-1.1,0.7-1.6,1.1L11,10.9c0.4-0.3,0.8-0.7,1.3-1
			c0.5-0.3,1.1-0.6,1.7-0.8c0.7-0.2,1.4-0.3,2.2-0.3c0.8,0,1.7,0.2,2.4,0.5c0.6,0.3,1.2,0.8,1.6,1.4c0.4,0.6,0.6,1.3,0.5,2
			c0,0.7-0.2,1.5-0.5,2.2c-0.4,0.7-0.8,1.4-1.4,1.9c-0.6,0.6-1.3,1.3-2.1,2.1l-1.8,1.7v0.1h6.2L21.1,23.4z"/>
	</g>
</g>
</svg>
