<?xml version="1.0" encoding="utf-8"?>
<!-- Generator: Adobe Illustrator 24.0.0, SVG Export Plug-In . SVG Version: 6.00 Build 0)  -->
<svg version="1.1" id="Ebene_1" xmlns="http://www.w3.org/2000/svg" xmlns:xlink="http://www.w3.org/1999/xlink" x="0px" y="0px"
	 viewBox="0 0 31.3 37.5" style="enable-background:new 0 0 31.3 37.5;" xml:space="preserve">
<style type="text/css">
	.st0{fill:#004959;}
</style>
<title>5Element 7</title>
<g id="Ebene_2_1_">
	<g id="Ebene_1-2">
		<path class="st0" d="M27.9,31.7c0,1.3-1,2.3-2.2,2.3c0,0,0,0,0,0H5.6c-1.3,0-2.3-1.1-2.2-2.3c0,0,0,0,0,0V12.9h3.4v2.9
			c-0.1,0.9,0.6,1.7,1.5,1.8s1.7-0.6,1.8-1.5c0-0.1,0-0.2,0-0.3v-2.9h11.2v2.9c-0.1,0.9,0.6,1.7,1.5,1.8s1.7-0.6,1.8-1.5
			c0-0.1,0-0.2,0-0.3v-2.9h3.4L27.9,31.7z M15.6,3.5c3.2,0.1,5.7,2.7,5.6,5.9H10C10,6.2,12.5,3.6,15.6,3.5 M24.6,9.4
			C24.8,4.5,21,0.3,16.1,0c-4.9-0.2-9.1,3.6-9.4,8.5c0,0.3,0,0.6,0,0.8H0v22.3c-0.1,3.2,2.4,5.8,5.6,5.9c0,0,0,0,0,0h20.1
			c3.2-0.1,5.7-2.7,5.6-5.9V9.4H24.6z"/>
	</g>
</g>
</svg>
