<?xml version="1.0" encoding="utf-8"?>
<!-- Generator: Adobe Illustrator 24.0.0, SVG Export Plug-In . SVG Version: 6.00 Build 0)  -->
<svg version="1.1" id="Ebene_1" xmlns="http://www.w3.org/2000/svg" xmlns:xlink="http://www.w3.org/1999/xlink" x="0px" y="0px"
	 viewBox="0 0 170.6 32.9" style="enable-background:new 0 0 170.6 32.9;" xml:space="preserve">
<style type="text/css">
	.st0{fill:#222C2C;}
	.st1{fill:#004959;}
	.st2{fill:#FFFFFF;}
</style>
<title>5Element 3</title>
<g id="Ebene_2_1_">
	<g id="Ebene_1-2">
		<rect y="15.9" class="st0" width="170.6" height="1.1"/>
		<path class="st1" d="M85.3,32.9c9.1,0,16.5-7.3,16.5-16.4C101.8,7.4,94.5,0,85.4,0c-9.1,0-16.5,7.3-16.5,16.4c0,0,0,0,0,0.1
			C68.9,25.5,76.2,32.9,85.3,32.9"/>
		<path class="st2" d="M89.3,12.3c0,0.9-0.3,1.7-0.9,2.4c-0.6,0.6-1.4,1-2.2,1.2l0,0c1,0.1,1.9,0.4,2.6,1.1c0.6,0.6,0.9,1.4,0.9,2.2
			c0,0.8-0.2,1.6-0.6,2.2c-0.5,0.7-1.1,1.3-1.9,1.6c-1,0.4-2.1,0.6-3.3,0.6c-1.4,0-2.8-0.2-4.1-0.8v-2.6c0.6,0.3,1.3,0.5,1.9,0.7
			c0.6,0.2,1.2,0.2,1.9,0.2c0.8,0.1,1.6-0.1,2.3-0.6c0.4-0.4,0.7-1,0.6-1.6c0-0.4-0.1-0.7-0.3-1c-0.3-0.3-0.6-0.5-1-0.6
			c-0.7-0.2-1.4-0.2-2.1-0.2h-1.1v-2.3h1.1c0.7,0,1.4-0.1,2-0.3c0.4-0.1,0.7-0.4,0.9-0.7c0.2-0.3,0.3-0.7,0.3-1
			c0-0.5-0.2-0.9-0.5-1.2c-0.5-0.3-1-0.5-1.6-0.4c-0.6,0-1.2,0.1-1.8,0.4c-0.4,0.2-0.9,0.4-1.3,0.7l-1.4-2.1c0.6-0.4,1.3-0.8,2-1
			c0.9-0.3,1.8-0.4,2.7-0.4C85.8,8.8,87,9.1,88,9.8C88.9,10.3,89.3,11.3,89.3,12.3z"/>
	</g>
</g>
</svg>
