<?xml version="1.0" encoding="utf-8"?>
<!-- Generator: Adobe Illustrator 24.0.0, SVG Export Plug-In . SVG Version: 6.00 Build 0)  -->
<svg version="1.1" id="Ebene_1" xmlns="http://www.w3.org/2000/svg" xmlns:xlink="http://www.w3.org/1999/xlink" x="0px" y="0px"
	 viewBox="0 0 47.8 47.8" style="enable-background:new 0 0 47.8 47.8;" xml:space="preserve">
<style type="text/css">
	.st0{fill:#FFE5A4;}
	.st1{fill:#FDD177;}
	.st2{fill:#FFFFFF;}
</style>
<title>5Element 2</title>
<g id="Ebene_2_1_">
	<g id="Ebene_1-2">
		<path class="st0" d="M23.9,47.8c13.2,0,23.9-10.7,23.9-23.9C47.8,10.7,37.1,0,23.9,0S0,10.7,0,23.9c0,0,0,0,0,0
			C0,37.1,10.7,47.8,23.9,47.8"/>
		<path class="st1" d="M13.8,12.2c1.9,0,3.7,0.5,5.3,1.4c1.6,0.9,2.9,2.3,3.9,3.9c0.9,1.6,1.4,3.5,1.4,5.3v3.8
			c0,0.2-0.1,0.4-0.2,0.5c-0.1,0.1-0.3,0.2-0.6,0.2h-1.5c-0.2,0-0.4-0.1-0.6-0.2c-0.1-0.1-0.2-0.3-0.2-0.5v-3.8
			c-1.9,0-3.7-0.5-5.3-1.4c-3.3-1.9-5.3-5.4-5.3-9.2H13.8z M32,9.1h3c0,1.7-0.4,3.5-1.3,5c-1.7,3.1-4.8,5.2-8.3,5.5
			C25,17.8,24,16,22.7,14.6c0.9-1.6,2.3-3,3.9-4C28.2,9.6,30.1,9.1,32,9.1z"/>
		<path class="st2" d="M9.3,33.3l-2.4-6.4h1.8l1.2,3.7C9.9,30.8,10,31,10,31.3c0,0.2,0.1,0.4,0.1,0.6h0.1c0-0.4,0.1-0.9,0.3-1.3
			l1.2-3.7h1.8L11,33.3H9.3z"/>
		<path class="st2" d="M16.9,26.8c0.8,0,1.5,0.2,2.1,0.8c0.5,0.6,0.8,1.4,0.8,2.2v0.8h-4c0,0.4,0.1,0.8,0.4,1.2
			c0.3,0.3,0.7,0.4,1.1,0.4c0.4,0,0.7,0,1.1-0.1c0.3-0.1,0.7-0.2,1-0.4V33c-0.3,0.2-0.7,0.3-1,0.4c-0.4,0.1-0.8,0.1-1.2,0.1
			c-0.6,0-1.1-0.1-1.7-0.4c-0.5-0.2-0.9-0.6-1.1-1.1c-0.3-0.6-0.4-1.2-0.4-1.8c0-0.6,0.1-1.3,0.4-1.9c0.2-0.5,0.6-0.9,1.1-1.1
			C15.8,26.9,16.4,26.8,16.9,26.8z M16.9,28.1c-0.3,0-0.6,0.1-0.8,0.3c-0.2,0.3-0.4,0.6-0.4,1h2.4c0-0.4-0.1-0.7-0.3-1
			C17.6,28.1,17.2,28,16.9,28.1L16.9,28.1z"/>
		<path class="st2" d="M23.1,26.8c0.7,0,1.4,0.3,1.8,0.9l0,0l0.1-0.8h1.5v6.4c0.1,0.8-0.2,1.5-0.8,2.1c-0.7,0.5-1.5,0.8-2.4,0.7
			c-0.4,0-0.8,0-1.2-0.1c-0.4-0.1-0.8-0.1-1.1-0.3v-1.4c0.8,0.3,1.6,0.5,2.5,0.5c0.9,0,1.3-0.5,1.3-1.5v-0.1c0-0.1,0-0.3,0-0.4
			c0-0.1,0-0.3,0-0.4l0,0c-0.2,0.3-0.5,0.6-0.8,0.7c-0.3,0.2-0.7,0.2-1,0.2c-0.7,0-1.4-0.3-1.8-0.9c-0.5-0.7-0.7-1.6-0.6-2.4
			c-0.1-0.9,0.2-1.7,0.6-2.5C21.7,27.1,22.4,26.8,23.1,26.8z M23.7,28.2c-0.8,0-1.2,0.6-1.2,1.9s0.4,1.9,1.2,1.9
			c0.4,0,0.7-0.1,1-0.4c0.2-0.4,0.3-0.9,0.3-1.3v-0.2c0-0.5-0.1-1-0.3-1.5C24.5,28.4,24.1,28.2,23.7,28.2z"/>
		<path class="st2" d="M31,26.8c0.7,0,1.4,0.2,1.9,0.6c0.5,0.4,0.7,1.1,0.7,1.7v4.3h-1.2L32,32.5l0,0c-0.5,0.7-1.3,1.1-2.1,1
			c-0.5,0-1-0.2-1.4-0.5c-0.4-0.4-0.6-1-0.5-1.5c0-0.6,0.2-1.2,0.7-1.5c0.6-0.4,1.4-0.6,2.1-0.5h1.1v-0.3c0-0.3-0.1-0.5-0.3-0.7
			c-0.2-0.2-0.5-0.3-0.7-0.2c-0.3,0-0.6,0-0.9,0.1c-0.3,0.1-0.6,0.2-0.9,0.3l-0.6-1.2C29.3,27,30.2,26.8,31,26.8z M31.9,30.4h-0.7
			c-0.4,0-0.9,0.1-1.2,0.3c-0.2,0.2-0.3,0.5-0.3,0.7c0,0.2,0.1,0.4,0.3,0.6c0.2,0.1,0.4,0.2,0.6,0.2c0.3,0,0.7-0.1,0.9-0.3
			c0.3-0.2,0.4-0.6,0.4-0.9V30.4z"/>
		<path class="st2" d="M38.9,26.8c1.1-0.1,2.1,0.6,2.2,1.7c0,0.2,0,0.4,0,0.6v4.2h-1.7v-3.7c0-0.3-0.1-0.7-0.2-1
			c-0.2-0.2-0.5-0.4-0.8-0.4c-0.4,0-0.9,0.2-1.1,0.6c-0.2,0.5-0.3,1-0.3,1.5v3h-1.7v-6.4h1.3l0.2,0.8H37c0.2-0.3,0.5-0.6,0.8-0.7
			C38.2,26.9,38.5,26.8,38.9,26.8z"/>
	</g>
</g>
</svg>
