<?xml version="1.0" encoding="utf-8"?>
<!-- Generator: Adobe Illustrator 24.0.0, SVG Export Plug-In . SVG Version: 6.00 Build 0)  -->
<svg version="1.1" id="Ebene_1" xmlns="http://www.w3.org/2000/svg" xmlns:xlink="http://www.w3.org/1999/xlink" x="0px" y="0px"
	 viewBox="0 0 5.8 15.6" style="enable-background:new 0 0 5.8 15.6;" xml:space="preserve">
<style type="text/css">
	.st0{fill:#004959;}
</style>
<title>5Element 12</title>
<g id="Ebene_2_1_">
	<g id="Ebene_1-2">
		<path class="st0" d="M1.2,12.9V8.5H0.6C0.3,8.5,0,8.3,0,7.9V6.5c0-0.3,0.3-0.6,0.6-0.6c0,0,0,0,0,0H4c0.3,0,0.6,0.3,0.6,0.6l0,0
			v6.5h0.6c0.3,0,0.6,0.3,0.6,0.6V15c0,0.3-0.3,0.6-0.6,0.6H0.6C0.3,15.6,0,15.3,0,15v-1.5c0-0.3,0.3-0.6,0.6-0.6H1.2z M5.1,2.2
			c0,1.2-1,2.2-2.2,2.2c-1.2,0-2.2-1-2.2-2.2C0.7,1,1.7,0,2.9,0c0,0,0,0,0,0C4.1,0,5.1,1,5.1,2.2C5.1,2.2,5.1,2.2,5.1,2.2z"/>
	</g>
</g>
</svg>
