<?xml version="1.0" encoding="utf-8"?>
<!-- Generator: Adobe Illustrator 24.0.0, SVG Export Plug-In . SVG Version: 6.00 Build 0)  -->
<svg version="1.1" id="Ebene_1" xmlns="http://www.w3.org/2000/svg" xmlns:xlink="http://www.w3.org/1999/xlink" x="0px" y="0px"
	 viewBox="0 0 20 22.3" style="enable-background:new 0 0 20 22.3;" xml:space="preserve">
<style type="text/css">
	.st0{clip-path:url(#SVGID_2_);}
	.st1{fill:#004959;}
</style>
<title>5Element 1</title>
<g id="Ebene_2_1_">
	<g id="Ebene_1-2">
		<g>
			<defs>
				<rect id="SVGID_1_" y="0" width="20" height="22.3"/>
			</defs>
			<clipPath id="SVGID_2_">
				<use xlink:href="#SVGID_1_"  style="overflow:visible;"/>
			</clipPath>
			<g class="st0">
				<path class="st1" d="M10,2.1c2.3,0,4.3,1.8,4.3,4.2c0,2.4-1.9,4.3-4.3,4.3c-2.4,0-4.3-1.9-4.3-4.3C5.7,3.9,7.7,2.1,10,2.1
					 M10,12.5c3.5,0,6.4-2.8,6.4-6.3c0,0,0,0,0,0C16.4,2.8,13.5,0,10,0c0,0,0,0,0,0C6.5,0,3.6,2.8,3.6,6.3c0,0,0,0,0,0
					C3.6,9.8,6.5,12.6,10,12.5C10,12.5,10,12.5,10,12.5 M17.9,20.2H2.1v-1.1c0-2.1,1.8-3.8,3.9-3.8c0.7,0,1.7,0.7,4,0.7
					s3.3-0.7,4-0.7c2.1,0,3.8,1.7,3.9,3.8V20.2z M14,13.2c-1.3,0-1.9,0.7-4,0.7s-2.7-0.7-4-0.7c-3.3,0-6,2.6-6,5.8v1.1
					c0,1.2,1,2.1,2.1,2.1h15.7c1.2,0,2.1-0.9,2.1-2.1v-1.1C20,15.8,17.3,13.2,14,13.2"/>
			</g>
		</g>
	</g>
</g>
</svg>
