<svg xmlns="http://www.w3.org/2000/svg" width="304.58" height="304.58" viewBox="0 0 304.58 304.58"><defs><style>.cls-1{fill:#fab722;stroke:#fff;stroke-miterlimit:10;stroke-width:0.1px;}</style></defs><title>5Element 2</title><g id="Ebene_2" data-name="Ebene 2"><g id="Ebene_9" data-name="Ebene 9"><path class="cls-1" d="M216.36,120.73c-.36-1.64-.92-4.42-1.51-7.36-.87-4.28-1.84-9.14-2.14-10-2.34-6.77-4.85-7.1-12.93-4.75-2.84.83-21.64,3.41-24.83,3.41-3.61,0-9.85.22-13.25.35l-1.54.06-7.7-24.81-2.89,4.56c-.28.54-8.84,13.72-25.1,34.26C105.35,140.61,97.15,164.72,95,178.56c-.8,5.29-7.06,35.83-7,43h6L109,197.84c.51-.7,4.59-6.48,5.3-11l.16-1.19c.64-4.65,2-14.35,5.16-19a67,67,0,0,1,7.2-9.12l1.86-1.86,5.52,9.67,9.92-7.24,3.3,11.75,9.43-.15.53,1.23A36.08,36.08,0,0,1,160,183.2c0,4.7-1.59,15.8-14.77,18.25l-.22,1.37c-.15,1,1.92,8.24,5.33,12.62a44.12,44.12,0,0,0,6.12,6.1h6.25c-1.58-1.89-3.53-4-5.15-5.67l-.07-.08c-1.37-1.46-2.54-2.69-3.14-3.47l-.1-.13c-.84-1.07-2.59-3.31-2.78-5.63l-.11-1.41,1.28-.58c8.22-3.72,12.52-11.14,12.43-21.45,0-5.48-3.6-15.47-4.43-17.18l-.71-1.44-8.74.14-4.32-15.4L136.16,156l-6.48-8.91-2.32,2.51a129,129,0,0,0-12,14.07c-3.89,5.68-5.26,15.79-6,21.22l-.16,1.19c-.27,1.9-2.62,5.75-3.09,6.5L94.43,211.36s5.07-28.41,5.63-32c2.16-14.2,11.09-36.61,28.22-59.51,9-12,16.61-20.62,20.48-26.49l2.37-3.62,5.26,18,2.05-.09c1.92-.08,11.7-.49,16.51-.49,5.23,0,21.13-1.62,23.27-2.26,4.41-1.32,6.38-1.75,8.14-.7,1.49.9,2,2.63,2.38,4.37,0,.2.16.69.31,1.36.73,3.1,2.25,9.56,2.38,12.09.22,4.37-.23,15.06-9.11,20-2,1.1-4,2.32-5.87,3.39l-.17.11c-11.55,6.77-17.94,10-20.84,8.58L169,151l3.08,6.64c.89,2.45,3.36,9.1,7.6,19.44,4.75,11.58,0,33.43-1.53,38.65-.29,1-1,3.79-1.45,5.84h6.19c1.31-4.89,7.62-30.34,1.47-46.45-.89-2.34-1.76-4.75-2.52-6.87l-.08-.22c-.85-2.38-1.72-4.81-2.4-6.47l-.87-2.1,2.2-.59c5.17-1.37,11.46-5.07,18.12-9,2-1.18,4-2.35,6-3.45C217.43,139.34,217.12,124.12,216.36,120.73Z"/><path class="cls-1" d="M152.29,304.53C68.34,304.53.05,236.24.05,152.29S68.34.05,152.29.05,304.53,68.34,304.53,152.29,236.24,304.53,152.29,304.53Zm0-301c-82,0-148.74,66.73-148.74,148.74S70.27,301,152.29,301,301,234.31,301,152.29,234.31,3.55,152.29,3.55Z"/><path class="cls-1" d="M63.67,95.42h0l-1.25-.68,0,0a7,7,0,0,0,5.7-3.33,7.28,7.28,0,0,0,1.14-6.31c-.6-2.21-2.3-4.31-5.05-6.22S58.89,76,56.65,76.22a7.29,7.29,0,0,0-5.47,3.3,7.14,7.14,0,0,0-1.42,3.62,7.41,7.41,0,0,0,.44,3v0l-2.47-1.06L45.8,87.91l23.59,16.4,2.35-3.39L65,96.26C64.66,96,64.21,95.72,63.67,95.42ZM53.48,82.23A4,4,0,0,1,57,80.36a9.28,9.28,0,0,1,4.79,1.91,9.9,9.9,0,0,1,3.52,3.85,3.75,3.75,0,0,1-.41,3.94c-1.08,1.56-2.32,2.3-3.69,2.21a10.21,10.21,0,0,1-4.88-2.08l-.48-.34a8.33,8.33,0,0,1-3.25-3.65A4.36,4.36,0,0,1,53.48,82.23Z"/><path class="cls-1" d="M81.79,69.09A18.16,18.16,0,0,1,80.36,72a14.69,14.69,0,0,1-2.15,2.6,5.49,5.49,0,0,1-4.07,1.81,6.61,6.61,0,0,1-4.22-2.06L79.34,65l-1.58-1.59a9.3,9.3,0,0,0-6.25-3.12,8.09,8.09,0,0,0-6.12,2.62,8.82,8.82,0,0,0-2.49,4.21,8.29,8.29,0,0,0,.27,4.76,12.93,12.93,0,0,0,3.19,4.84,11.42,11.42,0,0,0,4.83,3.12,8.26,8.26,0,0,0,2.44.37,8,8,0,0,0,2.42-.37,11.08,11.08,0,0,0,4.44-2.77,17.58,17.58,0,0,0,2.35-2.76,13.84,13.84,0,0,0,1.44-2.85l0-.07-2.45-2.48ZM67.67,65.22a4,4,0,0,1,2.8-1.32,4,4,0,0,1,.49,0,6.16,6.16,0,0,1,3.26,1.77L67.8,72a6,6,0,0,1-1.52-3.59A4.23,4.23,0,0,1,67.67,65.22Z"/><path class="cls-1" d="M94.45,60.93A8.45,8.45,0,0,1,92.36,63a2.71,2.71,0,0,1-2,.56,3.07,3.07,0,0,1-2-1.41L82.12,53.5l4.57-3.3L84.8,47.6l-4.56,3.29-2.59-3.58-2.1,1.51L76.9,53l-1.49,2.9,1.14,1.59,2.23-1.61,6.3,8.73A7.58,7.58,0,0,0,88,67.27a4.9,4.9,0,0,0,1.91.41,4.44,4.44,0,0,0,1-.12,7.68,7.68,0,0,0,2.75-1.3,11.37,11.37,0,0,0,1.62-1.42,7.18,7.18,0,0,0,1.09-1.41l0-.07-1.87-2.58Z"/><path class="cls-1" d="M106.5,48.83a5.92,5.92,0,0,0-2.66-.7,21.87,21.87,0,0,0-3.43.14c-1.32.14-2.37.22-3.14.24a4.36,4.36,0,0,1-1.72-.23,1.71,1.71,0,0,1-.87-.81c-.61-1.17.1-2.26,2.17-3.34a10,10,0,0,1,2.57-.91,21.67,21.67,0,0,1,2.75-.39h.13l-.25-3.46h-.12a16.71,16.71,0,0,0-3.24.52,15.29,15.29,0,0,0-3.2,1.24,9.91,9.91,0,0,0-4.26,3.79,4.58,4.58,0,0,0,0,4.56,5,5,0,0,0,1.9,2.1,6.17,6.17,0,0,0,2.67.72,22.6,22.6,0,0,0,3.55-.15,22,22,0,0,1,3.19-.2,4,4,0,0,1,1.67.32,2,2,0,0,1,.82.83,2.07,2.07,0,0,1,0,2,5.48,5.48,0,0,1-2.43,2,12,12,0,0,1-3.2,1.11,17.93,17.93,0,0,1-3.17.4H96l1.66,3.19,0,.07h.08a10.45,10.45,0,0,0,2.87-.45A18.57,18.57,0,0,0,104,60.05a10.24,10.24,0,0,0,4.6-4.11,5.21,5.21,0,0,0-.18-5A4.89,4.89,0,0,0,106.5,48.83Z"/><path class="cls-1" d="M127.72,30,123,31.23l-.29-1.12c-.62-2.42,0-3.82,1.76-4.28A7.35,7.35,0,0,1,126,25.6c.53,0,1,0,1.42,0h.12l.24-3.36h-.13a14.12,14.12,0,0,0-1.87,0,11.71,11.71,0,0,0-2.34.38,7.06,7.06,0,0,0-4.37,2.79c-.88,1.34-1,3.27-.37,5.72l.29,1.12-2.93,2,.51,2,3.22-.82,4.13,16.1,0,.12,4-1-4.16-16.22,4.71-1.21Z"/><path class="cls-1" d="M135,26.1a2.48,2.48,0,0,0,1.52-.77,2.17,2.17,0,0,0,.44-1.88,2.12,2.12,0,0,0-1-1.7,2.54,2.54,0,0,0-1.67-.31,2.68,2.68,0,0,0-1.56.76,2.18,2.18,0,0,0-.44,1.9,2.14,2.14,0,0,0,.95,1.68,2.41,2.41,0,0,0,1.29.35A2,2,0,0,0,135,26.1Z"/><polygon class="cls-1" points="137.37 28.58 133.28 29.16 136.06 48.79 136.07 48.92 140.16 48.34 137.38 28.7 137.37 28.58"/><path class="cls-1" d="M154.66,27.28h0a8.78,8.78,0,0,0-3.55.73,5.85,5.85,0,0,0-2.64,2.25h-.05l-.52-2.54v-.1h-3.3l-.07,19.83v.13h4.12l0-10.07a9.43,9.43,0,0,1,1.15-5.08c.74-1.14,2.09-1.72,4-1.72h0c2.64,0,3.93,1.48,3.92,4.49l0,12.29v.12l4.08,0,.05-13c0-2.56-.62-4.45-1.85-5.62A7.55,7.55,0,0,0,154.66,27.28Z"/><path class="cls-1" d="M176.68,29.61a8.76,8.76,0,0,0-4.88.32A8.31,8.31,0,0,0,168,32.84a13.07,13.07,0,0,0-2.19,5.36A11.6,11.6,0,0,0,166,44a8.2,8.2,0,0,0,2.75,4,11.07,11.07,0,0,0,4.8,2.1,18.67,18.67,0,0,0,3.46.38h.14a14.08,14.08,0,0,0,3.16-.42l.08,0,.66-3.42-.18,0a16.91,16.91,0,0,1-3.18.43,14.6,14.6,0,0,1-3.35-.3,5.48,5.48,0,0,1-3.8-2.33,6.62,6.62,0,0,1-.68-4.65l12.87,2.5.12,0,.43-2.2a9.34,9.34,0,0,0-1-6.92A8,8,0,0,0,176.68,29.61Zm-.62,3.18a3.81,3.81,0,0,1,2.92,2,6.17,6.17,0,0,1,.39,3.69l-8.86-1.72a6.16,6.16,0,0,1,2.1-3.29A4.3,4.3,0,0,1,176.06,32.79Z"/><path class="cls-1" d="M208.24,40.61l-4.45-2,.46-1.06A4.7,4.7,0,0,1,206,35.31a2.43,2.43,0,0,1,2.26,0,7.07,7.07,0,0,1,1.34.77c.41.29.79.59,1.13.87l.09.08,2.26-2.5-.09-.08a15.12,15.12,0,0,0-1.46-1.17,11.64,11.64,0,0,0-2.08-1.15,7.07,7.07,0,0,0-5.16-.5c-1.52.52-2.8,2-3.82,4.28L200,37l-3.53-.24-.82,1.87,3.05,1.34L192,55.16l-.05.11,3.78,1.66L202.5,41.6,207,43.55Z"/><path class="cls-1" d="M224,55.22a8.41,8.41,0,0,0-.9-4.73,9.59,9.59,0,0,0-3.42-3.62,9,9,0,0,0-7.26-1.43c-2.37.6-4.47,2.31-6.23,5.08a12.07,12.07,0,0,0-2,5.39,8.52,8.52,0,0,0,.89,4.75,9.56,9.56,0,0,0,3.4,3.6,9.72,9.72,0,0,0,5.25,1.67,8.14,8.14,0,0,0,2-.25c2.4-.6,4.51-2.31,6.28-5.08A12,12,0,0,0,224,55.22Zm-3.88-1.86a8.92,8.92,0,0,1-1.69,5A9.22,9.22,0,0,1,214.64,62a5.11,5.11,0,0,1-6.57-4.2,9.09,9.09,0,0,1,1.71-5,9,9,0,0,1,3.77-3.65,3.79,3.79,0,0,1,1.47-.3,5.1,5.1,0,0,1,2.75.91A4.45,4.45,0,0,1,220.14,53.36Z"/><path class="cls-1" d="M241,70.39a8.5,8.5,0,0,0,0-4.82,9.69,9.69,0,0,0-2.69-4.19,9,9,0,0,0-6.86-2.77c-2.44.14-4.82,1.43-7.07,3.82a12.06,12.06,0,0,0-3,4.92,8.45,8.45,0,0,0,0,4.83A9.44,9.44,0,0,0,224,76.35a9.17,9.17,0,0,0,6.38,2.77h.49c2.46-.14,4.86-1.42,7.11-3.81A12,12,0,0,0,241,70.39Zm-3.46-2.56a8.84,8.84,0,0,1-2.6,4.56,9.09,9.09,0,0,1-4.42,2.88,5.13,5.13,0,0,1-5.67-5.36,9.09,9.09,0,0,1,2.62-4.57,9,9,0,0,1,4.39-2.88,3.62,3.62,0,0,1,.8-.08,4.69,4.69,0,0,1,3.22,1.47A4.49,4.49,0,0,1,237.51,67.83Z"/><path class="cls-1" d="M262.72,78.29l-6.1,4.38a14.34,14.34,0,0,0-1.35,1.1l-1,.92h0a7.66,7.66,0,0,0,.3-3.05,7.21,7.21,0,0,0-1.47-3.52,7.32,7.32,0,0,0-5.57-3.23c-2.28-.19-4.83.73-7.6,2.71s-4.41,4.08-5,6.26a7.29,7.29,0,0,0,1.29,6.26,7.11,7.11,0,0,0,2.92,2.53,7.54,7.54,0,0,0,2.91.62h.13l-1.69,2-.06.07,1.9,2.65L265,81.71l.1-.07ZM239.56,88.85a4,4,0,0,1-.64-3.87,9,9,0,0,1,3.41-3.9A9.69,9.69,0,0,1,247.25,79h.26a3.85,3.85,0,0,1,3.26,1.76c1.14,1.58,1.44,3,.9,4.29A10.22,10.22,0,0,1,248.06,89l-.48.34a8.15,8.15,0,0,1-4.47,1.8h0C241.82,91.12,240.64,90.36,239.56,88.85Z"/><path class="cls-1" d="M255.39,121.85l5.67.29,1.48,5.49a1.25,1.25,0,0,0,1.14.92h.06a1.24,1.24,0,0,0,1.17-.8l2-5.3,5.68.29a1.25,1.25,0,0,0,.85-2.22L269.05,117l2-5.31a1.24,1.24,0,0,0-.38-1.42,1.23,1.23,0,0,0-1.46-.07l-4.77,3.09-4.41-3.57a1.25,1.25,0,0,0-2,1.3l1.48,5.48-4.77,3.1a1.26,1.26,0,0,0,.62,2.3Z"/><path class="cls-1" d="M279.1,153.74l-4.37-3.54,2-5.25a1.25,1.25,0,0,0-1.85-1.49l-4.71,3.06L265.81,143a1.25,1.25,0,0,0-1.47-.08,1.26,1.26,0,0,0-.53,1.37l1.46,5.43-4.71,3.07a1.24,1.24,0,0,0,.61,2.29l5.62.3,1.46,5.43a1.25,1.25,0,0,0,1.14.92h.07a1.23,1.23,0,0,0,1.16-.8l2-5.25,5.61.29a1.25,1.25,0,0,0,.85-2.22Z"/><path class="cls-1" d="M270.72,183.07l2-5.2a1.25,1.25,0,0,0-1.85-1.49l-4.66,3-4.33-3.5a1.25,1.25,0,0,0-2,1.3l1.44,5.37-4.66,3a1.23,1.23,0,0,0-.53,1.37,1.25,1.25,0,0,0,1.14.92l5.56.29,1.44,5.37a1.26,1.26,0,0,0,1.15.93h.06a1.26,1.26,0,0,0,1.17-.8l2-5.2,5.56.29a1.25,1.25,0,0,0,.85-2.22Z"/><path class="cls-1" d="M257.64,213.45l2-5.14a1.25,1.25,0,0,0-1.85-1.5l-4.62,3-4.28-3.47a1.25,1.25,0,0,0-2,1.3l1.42,5.32-4.61,3a1.24,1.24,0,0,0-.53,1.37,1.26,1.26,0,0,0,1.14.93l5.5.28,1.43,5.32a1.24,1.24,0,0,0,1.14.92h.07a1.26,1.26,0,0,0,1.17-.81l2-5.14,5.5.29a1.25,1.25,0,0,0,.85-2.22Z"/><path class="cls-1" d="M236.08,239.26l1.95-5.09a1.25,1.25,0,0,0-1.85-1.49l-4.56,3-4.24-3.43a1.26,1.26,0,0,0-1.47-.08,1.25,1.25,0,0,0-.52,1.38l1.41,5.26-4.57,3a1.25,1.25,0,0,0-.53,1.37,1.27,1.27,0,0,0,1.15.93l5.44.28,1.41,5.26a1.26,1.26,0,0,0,1.14.93h.07a1.26,1.26,0,0,0,1.17-.81l1.95-5.08,5.44.28a1.25,1.25,0,0,0,.85-2.22Z"/><path class="cls-1" d="M206.79,258.34l1.93-5a1.24,1.24,0,0,0-.38-1.42,1.26,1.26,0,0,0-1.47-.08l-4.52,2.94-4.19-3.39a1.25,1.25,0,0,0-2,1.3l1.4,5.21-4.52,2.93a1.25,1.25,0,0,0,.61,2.3l5.39.28,1.4,5.21a1.25,1.25,0,0,0,1.14.92h.06a1.23,1.23,0,0,0,1.17-.8l1.93-5,5.39.28a1.28,1.28,0,0,0,1.23-.81,1.25,1.25,0,0,0-.38-1.41Z"/><path class="cls-1" d="M173.84,267.79l1.91-5a1.26,1.26,0,0,0-.38-1.42,1.25,1.25,0,0,0-1.47-.07l-4.47,2.91-4.15-3.36a1.25,1.25,0,0,0-2,1.3l1.38,5.15-4.47,2.91a1.25,1.25,0,0,0-.53,1.37,1.27,1.27,0,0,0,1.15.92l5.32.28,1.39,5.15a1.25,1.25,0,0,0,1.14.92h.06a1.24,1.24,0,0,0,1.17-.8l1.91-5,5.33.28a1.27,1.27,0,0,0,1.23-.8,1.26,1.26,0,0,0-.38-1.42Z"/><path class="cls-1" d="M140.51,267.3l1.89-4.92a1.25,1.25,0,0,0-1.85-1.5l-4.43,2.88-4.1-3.32a1.25,1.25,0,0,0-2,1.3l1.37,5.09L127,269.71a1.24,1.24,0,0,0,.61,2.29l5.27.28,1.37,5.09a1.26,1.26,0,0,0,1.14.93h.07a1.24,1.24,0,0,0,1.16-.81l1.89-4.92,5.27.27a1.25,1.25,0,0,0,.85-2.22Z"/><path class="cls-1" d="M108.9,257.49l1.87-4.88a1.25,1.25,0,0,0-1.85-1.49L104.54,254l-4.05-3.28a1.26,1.26,0,0,0-2,1.3l1.36,5-4.38,2.84a1.26,1.26,0,0,0,.62,2.3l5.21.27,1.35,5a1.25,1.25,0,0,0,1.15.92h.06a1.26,1.26,0,0,0,1.17-.8l1.86-4.87,5.22.27a1.25,1.25,0,0,0,.85-2.22Z"/><path class="cls-1" d="M81.11,239,83,234.14a1.25,1.25,0,0,0-1.85-1.5l-4.33,2.81-4-3.24a1.25,1.25,0,0,0-2,1.29l1.34,5-4.33,2.81a1.26,1.26,0,0,0,.62,2.3l5.15.26,1.34,5a1.25,1.25,0,0,0,1.14.92h.07a1.25,1.25,0,0,0,1.16-.8l1.85-4.82,5.15.27a1.25,1.25,0,0,0,.85-2.22Z"/><path class="cls-1" d="M61.56,216.11l-4.48-2.89,1.36-5.16a1.24,1.24,0,0,0-.53-1.37,1.26,1.26,0,0,0-1.47.08l-4.13,3.37-4.48-2.89a1.25,1.25,0,0,0-1.85,1.5l1.93,5-4.13,3.37a1.26,1.26,0,0,0-.38,1.42,1.24,1.24,0,0,0,1.24.8L50,219l1.93,5a1.26,1.26,0,0,0,1.16.8h.07a1.26,1.26,0,0,0,1.14-.93l1.37-5.16,5.32-.3a1.24,1.24,0,0,0,.61-2.29Z"/><path class="cls-1" d="M48.84,186.87a1.23,1.23,0,0,0-.53-1.37l-4.43-2.86,1.35-5.1a1.25,1.25,0,0,0-2-1.29l-4.09,3.33-4.43-2.86a1.26,1.26,0,0,0-1.47.08,1.24,1.24,0,0,0-.37,1.42l1.9,4.92-4.09,3.33a1.26,1.26,0,0,0-.37,1.43,1.24,1.24,0,0,0,1.23.79l5.27-.29,1.9,4.92a1.27,1.27,0,0,0,1.17.8H40a1.25,1.25,0,0,0,1.14-.92l1.35-5.1,5.27-.3A1.23,1.23,0,0,0,48.84,186.87Z"/><path class="cls-1" d="M34.76,160.4a1.23,1.23,0,0,0,1.16.8H36a1.26,1.26,0,0,0,1.14-.93l1.33-5,5.21-.29a1.26,1.26,0,0,0,1.14-.93,1.24,1.24,0,0,0-.53-1.37l-4.38-2.83,1.33-5a1.23,1.23,0,0,0-.53-1.37,1.25,1.25,0,0,0-1.47.08l-4,3.3L30.8,144a1.23,1.23,0,0,0-1.46.08,1.26,1.26,0,0,0-.38,1.42l1.89,4.86-4.05,3.3a1.25,1.25,0,0,0,.86,2.22l5.21-.29Z"/><path class="cls-1" d="M33.3,122.88l5.15-.28,1.86,4.81a1.27,1.27,0,0,0,1.17.8h.07a1.26,1.26,0,0,0,1.14-.93l1.32-5,5.15-.29a1.24,1.24,0,0,0,.61-2.29l-4.34-2.8,1.32-5a1.25,1.25,0,0,0-2-1.29l-4,3.26-4.33-2.79a1.23,1.23,0,0,0-1.47.08,1.26,1.26,0,0,0-.38,1.42l1.87,4.81-4,3.26a1.24,1.24,0,0,0,.86,2.21Z"/></g></g></svg>