<?xml version="1.0" encoding="utf-8"?>
<!-- Generator: Adobe Illustrator 24.0.0, SVG Export Plug-In . SVG Version: 6.00 Build 0)  -->
<svg version="1.1" id="Ebene_1" xmlns="http://www.w3.org/2000/svg" xmlns:xlink="http://www.w3.org/1999/xlink" x="0px" y="0px"
	 viewBox="0 0 32.9 32.9" style="enable-background:new 0 0 32.9 32.9;" xml:space="preserve">
<style type="text/css">
	.st0{fill:#FBB722;}
	.st1{fill:#FFFFFF;}
</style>
<title>6Element 2</title>
<g id="Ebene_2_1_">
	<g id="Ebene_1-2">
		<path class="st0" d="M16.5,32.9c9.1,0,16.5-7.4,16.5-16.5S25.6,0,16.5,0S0,7.4,0,16.4C0,25.5,7.4,32.9,16.5,32.9
			C16.4,32.9,16.5,32.9,16.5,32.9"/>
		<path class="st1" d="M18.5,23.4h-3v-8.3c0-0.3,0-0.8,0-1.4c0-0.6,0-1.1,0.1-1.5c-0.1,0.1-0.2,0.2-0.4,0.4l-0.6,0.6l-1.6,1.3
			l-1.5-1.8l4.6-3.7h2.5V23.4z"/>
	</g>
</g>
</svg>
