<?xml version="1.0" encoding="utf-8"?>
<!-- Generator: Adobe Illustrator 24.0.0, SVG Export Plug-In . SVG Version: 6.00 Build 0)  -->
<svg version="1.1" id="Ebene_1" xmlns="http://www.w3.org/2000/svg" xmlns:xlink="http://www.w3.org/1999/xlink" x="0px" y="0px"
	 viewBox="0 0 32.9 32.9" style="enable-background:new 0 0 32.9 32.9;" xml:space="preserve">
<style type="text/css">
	.st0{fill:#004959;}
	.st1{fill:#FFFFFF;}
</style>
<title>5Element 1</title>
<g id="Ebene_2_1_">
	<g id="Ebene_1-2">
		<path class="st0" d="M16.5,32.9c9.1,0,16.5-7.4,16.5-16.4C32.9,7.4,25.6,0,16.5,0S0,7.4,0,16.4c0,0,0,0,0,0
			C0,25.5,7.4,32.9,16.5,32.9"/>
		<path class="st1" d="M6.3,17.7C6.1,17.5,6,17.2,6,17c0-0.3,0.1-0.5,0.3-0.7l1.5-1.4c0.2-0.2,0.4-0.3,0.7-0.3
			c0.3,0,0.5,0.1,0.7,0.3l4.4,4.4l9.4-9.4c0.2-0.2,0.4-0.3,0.7-0.3c0.3,0,0.5,0.1,0.7,0.3l1.4,1.4c0.2,0.2,0.3,0.4,0.3,0.7
			c0,0.3-0.1,0.5-0.3,0.7L14.2,24.1c-0.2,0.2-0.4,0.3-0.7,0.3c-0.3,0-0.5-0.1-0.7-0.3L6.3,17.7z"/>
	</g>
</g>
</svg>
