<?xml version="1.0" encoding="utf-8"?>
<!-- Generator: Adobe Illustrator 24.0.0, SVG Export Plug-In . SVG Version: 6.00 Build 0)  -->
<svg version="1.1" id="Ebene_1" xmlns="http://www.w3.org/2000/svg" xmlns:xlink="http://www.w3.org/1999/xlink" x="0px" y="0px"
	 viewBox="0 0 20 20" style="enable-background:new 0 0 20 20;" xml:space="preserve">
<style type="text/css">
	.st0{fill:#004959;}
	.st1{fill:#FFFFFF;}
</style>
<title>5Element 9</title>
<g id="Ebene_2_1_">
	<g id="Ebene_1-2">
		<path class="st0" d="M10,20c5.5,0,10-4.5,10-10S15.5,0,10,0S0,4.5,0,10S4.5,20,10,20"/>
		<path class="st1" d="M12.6,14h-6v-1.3l2.2-2.2C9.2,10,9.5,9.6,9.8,9.3c0.2-0.2,0.4-0.5,0.6-0.8c0.1-0.2,0.2-0.5,0.2-0.8
			c0-0.3-0.1-0.5-0.3-0.7C10,6.8,9.7,6.7,9.5,6.7c-0.3,0-0.7,0.1-1,0.2c-0.4,0.2-0.7,0.4-1,0.7l-1-1.2C6.7,6.2,7,6,7.2,5.8
			c0.3-0.2,0.6-0.3,1-0.5c0.4-0.1,0.9-0.2,1.3-0.2c0.5,0,1,0.1,1.4,0.3c0.4,0.2,0.8,0.5,1,0.8c0.2,0.4,0.3,0.8,0.3,1.2
			c0,0.5-0.1,0.9-0.3,1.3c-0.2,0.4-0.5,0.8-0.8,1.2c-0.4,0.4-0.8,0.8-1.3,1.3l-1.1,1.1v0.1h3.8V14z"/>
	</g>
</g>
</svg>
