<?xml version="1.0" encoding="utf-8"?>
<!-- Generator: Adobe Illustrator 24.0.0, SVG Export Plug-In . SVG Version: 6.00 Build 0)  -->
<svg version="1.1" id="Ebene_1" xmlns="http://www.w3.org/2000/svg" xmlns:xlink="http://www.w3.org/1999/xlink" x="0px" y="0px"
	 viewBox="0 0 47.8 47.8" style="enable-background:new 0 0 47.8 47.8;" xml:space="preserve">
<style type="text/css">
	.st0{fill:#A3C7E3;}
	.st1{fill:#88BADB;}
	.st2{fill:none;}
	.st3{fill:#BCD5EA;}
	.st4{fill:#FFFFFF;}
</style>
<title>5Element 4</title>
<g id="Ebene_2_1_">
	<g id="Ebene_1-2">
		<path class="st0" d="M23.9,47.8c13.2,0,23.9-10.7,23.9-23.9C47.8,10.7,37.1,0,23.9,0S0,10.7,0,23.9c0,0,0,0,0,0
			C0,37.1,10.7,47.8,23.9,47.8"/>
		<path class="st1" d="M13.2,15.5c0.2-0.2-0.1,0-1-0.9c-1.5-1.7-2-4.5-1.9-7.2c0.1-1.2,1.4-1,1.8-1c2,0,4.4,0.4,6,2
			c1.1,1.1,0.7,1.3,0.9,1L21.3,7c0.3-0.4,0.9-0.4,1.3,0c0,0,0,0,0,0l1.9,2.1c0.7,0.7,1.2,1.7,1.4,2.6c0.3-0.3,0.9-0.3,1.2,0.1l1.9,2
			c0.7,0.7,1.2,1.7,1.4,2.6c0.4-0.3,0.9-0.2,1.2,0.1l1.9,2c2.1,2.3,2.1,5.9,0,8.2l-1,1l6.6,6.9c0.5,0.6,0.5,1.4,0,2
			c-0.5,0.5-1.3,0.6-1.9,0.1c0,0,0,0-0.1-0.1l-6.5-6.9l-1,1c-2,2.1-5.3,2.3-7.5,0.3c-0.1-0.1-0.2-0.2-0.3-0.3L20,28.8
			c-0.3-0.3-0.3-0.9-0.1-1.2c-1-0.3-1.9-0.8-2.5-1.5l-1.9-2c-0.3-0.3-0.3-0.9-0.1-1.2c-1-0.2-1.8-0.8-2.5-1.5l-1.9-2
			c-0.4-0.4-0.4-1,0-1.4L13.2,15.5z M30,25l0.6,0.7l1-1c1.1-1.2,1.1-2.9,0-4.1L31,19.9l-1,1C28.9,22.1,28.9,23.9,30,25z M23.9,28.7
			c1,1.1,2.6,1.1,3.7,0.2c0.1,0,0.1-0.1,0.2-0.2l1-1L28.1,27c-1-1.1-2.7-1.1-3.7-0.1c0,0-0.1,0.1-0.1,0.1l-1,1L23.9,28.7z
			 M27.1,15.8l-0.6-0.7l-1,1c-1.1,1.2-1.1,2.9,0,4.1l0.6,0.7l1-1C28.1,18.8,28.1,17,27.1,15.8L27.1,15.8z M19.3,24
			c1,1.1,2.7,1.1,3.7,0.1c0,0,0.1-0.1,0.1-0.1l1-1l-0.6-0.7c-1-1.1-2.7-1.1-3.7-0.1c0,0-0.1,0.1-0.1,0.1l-1,1L19.3,24z M22.6,11.1
			l-0.7-0.7l-1,1c-1.1,1.2-1.1,2.9,0,4.1l0.7,0.7l1-1C23.6,14,23.6,12.3,22.6,11.1z M14.8,19.3c1,1.1,2.6,1.1,3.7,0.2
			c0.1,0,0.1-0.1,0.2-0.2l1-1L19,17.6c-1-1.1-2.6-1.1-3.7-0.2c-0.1,0-0.1,0.1-0.2,0.2l-1,1L14.8,19.3z M17.3,13.7
			c0-1.2-0.4-2.3-1.1-3.3c-0.9-0.7-2-1.1-3.1-1.1c0,1.2,0.4,2.3,1,3.3C15,13.3,16.1,13.7,17.3,13.7z"/>
		<line class="st2" x1="38.3" y1="7.8" x2="7.5" y2="38.6"/>
		<rect x="1" y="20.7" transform="matrix(0.7071 -0.7071 0.7071 0.7071 -9.7138 22.9705)" class="st3" width="43.7" height="5"/>
		<path class="st4" d="M8.6,23.6h3.2V28c-0.4,0.1-0.9,0.3-1.3,0.4c-0.5,0.1-1,0.1-1.5,0.1c-1,0.1-2-0.3-2.8-1.1
			c-0.7-0.9-1.1-2.1-1-3.2c0-0.8,0.1-1.6,0.5-2.3c0.3-0.6,0.8-1.1,1.4-1.5c0.7-0.4,1.5-0.5,2.3-0.5c0.4,0,0.8,0,1.2,0.1
			c0.4,0.1,0.8,0.2,1.1,0.4l-0.6,1.4c-0.3-0.1-0.5-0.2-0.8-0.3c-0.3-0.1-0.7-0.1-1-0.1c-0.4,0-0.9,0.1-1.3,0.4
			c-0.4,0.2-0.7,0.6-0.8,1c-0.2,0.5-0.3,1-0.3,1.5c0,0.5,0.1,1,0.2,1.5c0.1,0.4,0.3,0.7,0.7,1C8.1,26.9,8.6,27,9,27
			c0.2,0,0.4,0,0.6,0l0.5-0.1v-1.8H8.6V23.6z"/>
		<path class="st4" d="M15.1,28.3h-1.7v-8.9h1.7V28.3z"/>
		<path class="st4" d="M22.5,21.9v6.4h-1.3L21,27.5h-0.1c-0.2,0.3-0.5,0.6-0.8,0.7c-0.3,0.1-0.7,0.2-1.1,0.2c-0.6,0-1.1-0.2-1.6-0.6
			c-0.4-0.5-0.6-1.1-0.6-1.8v-4.2h1.6v3.8c0,0.3,0.1,0.7,0.2,1c0.2,0.2,0.5,0.4,0.8,0.3c0.4,0,0.8-0.2,1-0.5c0.2-0.5,0.3-1,0.3-1.6
			v-3L22.5,21.9z"/>
		<path class="st4" d="M26.8,27c0.2,0,0.4,0,0.5-0.1c0.2,0,0.3-0.1,0.5-0.2v1.3c-0.2,0.1-0.4,0.2-0.7,0.2c-0.3,0.1-0.6,0.1-0.9,0.1
			c-0.3,0-0.7-0.1-1-0.2c-0.3-0.1-0.5-0.4-0.7-0.6c-0.2-0.4-0.3-0.9-0.3-1.3v-3h-0.8v-0.7l0.9-0.6l0.5-1.4h1.1v1.4h1.7v1.3h-1.7v3.1
			c0,0.2,0.1,0.4,0.2,0.6C26.4,27,26.6,27,26.8,27z"/>
		<path class="st4" d="M31.6,21.8c0.7,0,1.5,0.2,2,0.8c0.5,0.6,0.8,1.4,0.7,2.2v0.8h-3.9c0,0.4,0.1,0.8,0.4,1.2
			c0.3,0.3,0.7,0.5,1.1,0.4c0.4,0,0.7,0,1.1-0.1c0.3-0.1,0.7-0.2,1-0.4V28c-0.3,0.2-0.6,0.3-1,0.4c-0.4,0.1-0.8,0.1-1.2,0.1
			c-0.6,0-1.1-0.1-1.6-0.4c-0.5-0.2-0.9-0.6-1.1-1.1c-0.3-0.6-0.4-1.2-0.4-1.8c0-0.6,0.1-1.3,0.3-1.9c0.2-0.5,0.6-0.9,1-1.1
			C30.5,21.9,31,21.8,31.6,21.8z M31.6,23c-0.3,0-0.6,0.1-0.8,0.3c-0.2,0.3-0.4,0.6-0.4,1h2.3c0-0.4-0.1-0.7-0.3-1
			C32.2,23.1,31.9,23,31.6,23L31.6,23z"/>
		<path class="st4" d="M39.1,21.8c0.6,0,1.1,0.2,1.6,0.6c0.4,0.5,0.6,1.1,0.6,1.8v4.2h-1.7v-3.7c0-0.3-0.1-0.7-0.2-1
			c-0.2-0.2-0.4-0.4-0.7-0.4c-0.4,0-0.8,0.2-1,0.6c-0.2,0.5-0.3,1-0.3,1.6v3h-1.7v-6.4h1.3l0.2,0.8h0.1c0.2-0.3,0.4-0.6,0.8-0.7
			C38.3,21.9,38.7,21.8,39.1,21.8z"/>
		<path class="st4" d="M17.9,34.4h-1.4v5.1h-1.7v-5.1h-0.9v-0.8l0.9-0.5v-0.5c0-0.4,0.1-0.9,0.2-1.3c0.2-0.3,0.4-0.5,0.8-0.6
			c0.4-0.1,0.8-0.2,1.1-0.2c0.3,0,0.6,0,0.9,0.1c0.2,0,0.4,0.1,0.6,0.2L18,32.1L17.6,32c-0.2,0-0.3-0.1-0.5-0.1
			c-0.2,0-0.4,0.1-0.5,0.2c-0.1,0.2-0.2,0.4-0.2,0.6v0.4h1.4V34.4z"/>
		<path class="st4" d="M22.2,33h0.3h0.3l-0.1,1.6c-0.1,0-0.2,0-0.2,0h-0.3c-0.3,0-0.6,0.1-0.8,0.2c-0.3,0.1-0.5,0.3-0.6,0.5
			c-0.2,0.3-0.3,0.6-0.2,1v3.3h-1.7v-6.5h1.3l0.3,1.1h0.1c0.2-0.3,0.4-0.6,0.7-0.9C21.4,33.1,21.8,33,22.2,33z"/>
		<path class="st4" d="M26.4,33c0.7,0,1.5,0.2,2,0.8c0.5,0.6,0.8,1.4,0.7,2.2v0.9h-3.9c0,0.4,0.1,0.8,0.4,1.2
			c0.3,0.3,0.7,0.4,1.1,0.4c0.4,0,0.7,0,1.1-0.1c0.3-0.1,0.7-0.2,1-0.4v1.4c-0.3,0.2-0.6,0.3-1,0.3c-0.4,0.1-0.8,0.1-1.2,0.1
			c-0.6,0-1.1-0.1-1.6-0.4c-0.5-0.2-0.9-0.6-1.1-1.1c-0.3-0.6-0.4-1.2-0.4-1.8c0-0.6,0.1-1.3,0.4-1.9c0.2-0.5,0.6-0.9,1-1.1
			C25.3,33.1,25.9,33,26.4,33z M26.4,34.2c-0.3,0-0.6,0.1-0.8,0.3c-0.2,0.3-0.4,0.6-0.4,1h2.3c0-0.4-0.1-0.7-0.3-1
			C27,34.3,26.7,34.2,26.4,34.2L26.4,34.2z"/>
		<path class="st4" d="M31.3,30.6c0.2,0,0.4,0.1,0.6,0.2c0.2,0.2,0.3,0.4,0.3,0.7c0,0.3-0.1,0.5-0.3,0.7c-0.4,0.3-0.9,0.3-1.3,0
			c-0.2-0.2-0.3-0.4-0.3-0.7c0-0.3,0.1-0.5,0.3-0.7C30.9,30.7,31.1,30.6,31.3,30.6z M32.1,33.1v6.4h-1.7v-6.4H32.1z"/>
	</g>
</g>
</svg>
