<svg id="Ebene_1" data-name="Ebene 1" xmlns="http://www.w3.org/2000/svg" width="120.7" height="33" viewBox="0 0 120.7 33"><defs><style>.cls-1{fill:#646464;}</style></defs><title>kaufaufrechnung</title><path class="cls-1" d="M24.8,33.6H.5V.6H24.8ZM2,32.1H23.3V2.1H2Z" transform="translate(-0.5 -0.6)"/><rect class="cls-1" x="3.8" y="3.5" width="14.5" height="1"/><rect class="cls-1" x="3.8" y="12.3" width="16.5" height="1"/><rect class="cls-1" x="3.8" y="6.5" width="15.7" height="1"/><rect class="cls-1" x="3.8" y="9.4" width="14.4" height="1"/><rect class="cls-1" x="3.8" y="15.2" width="14.4" height="1"/><path class="cls-1" d="M40,14.6H37.5L34,9.3l-1.1.9v4.4H30.7V2.6h2.2V8.2c.2-.3.5-.6.7-.9s.5-.6.7-.9l3.2-3.9H40L35.6,7.8Z" transform="translate(-0.5 -0.6)"/><path class="cls-1" d="M45,5.4a4.14,4.14,0,0,1,2.7.8,3,3,0,0,1,.9,2.4v6.1H47.1l-.4-1.3h-.1a4,4,0,0,1-1.2,1.1,4.18,4.18,0,0,1-1.8.3,2.72,2.72,0,0,1-2-.7,2.86,2.86,0,0,1-.8-2.1,2.39,2.39,0,0,1,1-2.1,6.07,6.07,0,0,1,3.1-.8L46.5,9V8.6c0-.6-.1-1-.4-1.2A2.14,2.14,0,0,0,44.9,7a5.07,5.07,0,0,0-1.3.2,11.22,11.22,0,0,0-1.3.5l-.7-1.5c.4-.2,1-.4,1.5-.6A6.48,6.48,0,0,1,45,5.4Zm1.5,4.9H45.4a2.89,2.89,0,0,0-1.9.5A1.66,1.66,0,0,0,43,12a1,1,0,0,0,.4.9,1.69,1.69,0,0,0,1,.3,3,3,0,0,0,1.6-.5,2.11,2.11,0,0,0,.6-1.6v-.8Z" transform="translate(-0.5 -0.6)"/><path class="cls-1" d="M59.4,5.5v9.1H57.7l-.3-1.2h-.1a2.34,2.34,0,0,1-1.2,1,4.53,4.53,0,0,1-1.6.3,3.65,3.65,0,0,1-2.4-.8,3.18,3.18,0,0,1-.9-2.5V5.5h2.1V11a2.08,2.08,0,0,0,.4,1.5A1.73,1.73,0,0,0,55,13a2.07,2.07,0,0,0,1.8-.8,4.62,4.62,0,0,0,.5-2.3V5.5Z" transform="translate(-0.5 -0.6)"/><path class="cls-1" d="M66.8,7.1H64.6v7.5H62.5V7.1H61v-1l1.5-.6V4.9a3,3,0,0,1,.8-2.4,3.7,3.7,0,0,1,2.3-.7,4.87,4.87,0,0,1,1.2.1c.4.1.6.1.9.2l-.5,1.6c-.2-.1-.4-.1-.6-.2s-.6,0-.8,0a1,1,0,0,0-.9.4A1.8,1.8,0,0,0,64.6,5v.6h2.2Z" transform="translate(-0.5 -0.6)"/><path class="cls-1" d="M76.3,5.4a4.14,4.14,0,0,1,2.7.8,3,3,0,0,1,.9,2.4v6.1H78.4L78,13.4h-.1a4,4,0,0,1-1.2,1.1,4.18,4.18,0,0,1-1.8.3,2.72,2.72,0,0,1-2-.7,2.86,2.86,0,0,1-.8-2.1,2.39,2.39,0,0,1,1-2.1,6.07,6.07,0,0,1,3.1-.8L77.8,9V8.6c0-.6-.1-1-.4-1.2A2.14,2.14,0,0,0,76.2,7a5.07,5.07,0,0,0-1.3.2,11.22,11.22,0,0,0-1.3.5L73,6.1c.4-.2,1-.4,1.5-.6A5.31,5.31,0,0,1,76.3,5.4Zm1.5,4.9H76.7a2.89,2.89,0,0,0-1.9.5,1.35,1.35,0,0,0-.5,1.2,1,1,0,0,0,.4.9,1.69,1.69,0,0,0,1,.3,3,3,0,0,0,1.6-.5,2.11,2.11,0,0,0,.6-1.6v-.8Z" transform="translate(-0.5 -0.6)"/><path class="cls-1" d="M90.6,5.5v9.1H89l-.3-1.2h-.1a2.34,2.34,0,0,1-1.2,1,4.53,4.53,0,0,1-1.6.3,3.65,3.65,0,0,1-2.4-.8,3.18,3.18,0,0,1-.9-2.5V5.5h2.1V11a2.08,2.08,0,0,0,.4,1.5,1.73,1.73,0,0,0,1.3.5,2.07,2.07,0,0,0,1.8-.8,3.75,3.75,0,0,0,.5-2.3V5.5Z" transform="translate(-0.5 -0.6)"/><path class="cls-1" d="M98.1,7.1H95.9v7.5H93.8V7.1H92.3v-1l1.5-.6V4.9a3,3,0,0,1,.8-2.4,3.7,3.7,0,0,1,2.3-.7,4.87,4.87,0,0,1,1.2.1,5.07,5.07,0,0,0,.9.2l-.5,1.6c-.2-.1-.4-.1-.6-.2s-.6,0-.9,0a1,1,0,0,0-.9.4A1.8,1.8,0,0,0,95.8,5v.6H98V7.1Z" transform="translate(-0.5 -0.6)"/><path class="cls-1" d="M34.1,20.5a5.13,5.13,0,0,1,3.4.9,3.39,3.39,0,0,1,1.1,2.7,3.34,3.34,0,0,1-.3,1.5,2.72,2.72,0,0,1-.8,1,4.13,4.13,0,0,1-1.1.7l3.4,5.3H37.4l-2.8-4.8H32.9v4.8H30.8V20.5Zm-.2,1.8H32.8V26H34a3.09,3.09,0,0,0,1.9-.5,1.68,1.68,0,0,0,.6-1.4,1.56,1.56,0,0,0-.6-1.4A3.74,3.74,0,0,0,33.9,22.3Z" transform="translate(-0.5 -0.6)"/><path class="cls-1" d="M48.1,32.6H41.4V20.5h6.7v1.8H43.5v3.1h4.3v1.8H43.5v3.6h4.6Z" transform="translate(-0.5 -0.6)"/><path class="cls-1" d="M55.6,22.2a2.91,2.91,0,0,0-2.5,1.2,5.27,5.27,0,0,0-.9,3.2,5.58,5.58,0,0,0,.8,3.2A2.79,2.79,0,0,0,55.5,31a7.72,7.72,0,0,0,1.5-.2c.5-.1,1-.3,1.5-.4v1.9a4.19,4.19,0,0,1-1.5.4c-.5,0-1.1.1-1.7.1a5.57,5.57,0,0,1-3-.8,4.41,4.41,0,0,1-1.8-2.2,8.11,8.11,0,0,1-.6-3.3,7.94,7.94,0,0,1,.6-3.2,5.1,5.1,0,0,1,1.9-2.2,5.57,5.57,0,0,1,3-.8,11,11,0,0,1,1.8.2,4.42,4.42,0,0,1,1.6.6l-.7,1.8a5,5,0,0,0-1.3-.5A2.34,2.34,0,0,0,55.6,22.2Z" transform="translate(-0.5 -0.6)"/><path class="cls-1" d="M70.4,32.6H68.3V27.2H63.1v5.4H61V20.5h2.1v4.9h5.2V20.5h2.1Z" transform="translate(-0.5 -0.6)"/><path class="cls-1" d="M83.5,32.6H80.9l-5.6-9.5h-.1a8.6,8.6,0,0,0,.1,1.6c0,.6.1,1.2.1,1.8v6.1H73.5V20.5h2.6L81.7,30h0a9.15,9.15,0,0,0-.1-1.6,9.15,9.15,0,0,0-.1-1.7V20.5h1.9V32.6Z" transform="translate(-0.5 -0.6)"/><path class="cls-1" d="M95.9,20.5v7.9a5.93,5.93,0,0,1-.5,2.3,3.54,3.54,0,0,1-1.6,1.6,5.4,5.4,0,0,1-2.7.6,4.79,4.79,0,0,1-3.5-1.2,4.46,4.46,0,0,1-1.2-3.3V20.6h2.1v7.6a2.92,2.92,0,0,0,.7,2.2,3.21,3.21,0,0,0,4,0,3.28,3.28,0,0,0,.6-2.1V20.7h2.1Z" transform="translate(-0.5 -0.6)"/><path class="cls-1" d="M108.9,32.6h-2.6l-5.6-9.5h-.1a8.6,8.6,0,0,0,.1,1.6c0,.6.1,1.2.1,1.8v6.1H98.9V20.5h2.6l5.6,9.5h0a9.15,9.15,0,0,0-.1-1.6,9.15,9.15,0,0,0-.1-1.7V20.5h1.9V32.6Z" transform="translate(-0.5 -0.6)"/><path class="cls-1" d="M116.7,26h4.5v6.2a13.32,13.32,0,0,1-1.9.5,15,15,0,0,1-2.2.2,5.14,5.14,0,0,1-4.1-1.6,6.51,6.51,0,0,1-1.4-4.6,6.71,6.71,0,0,1,.7-3.3,6.3,6.3,0,0,1,2.1-2.2,6.71,6.71,0,0,1,3.3-.8,12.25,12.25,0,0,1,1.9.2,7.49,7.49,0,0,1,1.6.5l-.7,1.8c-.4-.2-.8-.3-1.3-.5a7.72,7.72,0,0,0-1.5-.2,4.65,4.65,0,0,0-2.1.5,3.74,3.74,0,0,0-1.3,1.5,5.21,5.21,0,0,0-.5,2.3,5.56,5.56,0,0,0,.4,2.3,2.29,2.29,0,0,0,1.2,1.5,3.28,3.28,0,0,0,2.1.6,3.75,3.75,0,0,0,1.1-.1,1.88,1.88,0,0,0,.8-.2V27.7H117V26Z" transform="translate(-0.5 -0.6)"/><path class="cls-1" d="M14,19.2a5.9,5.9,0,0,1,1.4.2,6.12,6.12,0,0,1,1.2.5L16,21.3a3,3,0,0,0-1-.4,3.55,3.55,0,0,0-1-.2,2.11,2.11,0,0,0-1.6.6,3,3,0,0,0-.8,1.7h3.2v1.2H11.5v1h2.9v1.2H11.7a2.36,2.36,0,0,0,.9,1.6,2.31,2.31,0,0,0,1.7.5,4.1,4.1,0,0,0,1.1-.1c.4-.1.7-.2,1-.3v1.6a2.93,2.93,0,0,1-1,.3,4.87,4.87,0,0,1-1.2.1,4,4,0,0,1-2.9-1,5,5,0,0,1-1.4-2.8H8.6V25.1h.9v-1H8.6V22.9h1A5.29,5.29,0,0,1,11,20,4.12,4.12,0,0,1,14,19.2Z" transform="translate(-0.5 -0.6)"/></svg>