<svg xmlns="http://www.w3.org/2000/svg" width="124.66" height="96.74" viewBox="0 0 124.66 96.74"><defs><style>.cls-1{fill:#646464;}.cls-2{fill:#787878;}.cls-3{fill:#969696;}</style></defs><title>5Element 1</title><g id="Ebene_2" data-name="Ebene 2"><g id="svg3409"><g id="layer1"><g id="g13"><g id="g15"><path class="cls-1" d="M22.69,96.52V90.1A3.77,3.77,0,0,0,18.62,86,4.24,4.24,0,0,0,15,87.85,3.74,3.74,0,0,0,11.56,86a3.43,3.43,0,0,0-3,1.5V86.24H6.32V96.52H8.57V90.84c0-1.81,1-2.67,2.46-2.67s2.24,1,2.24,2.67v5.68h2.25V90.84A2.37,2.37,0,0,1,18,88.17c1.49,0,2.24,1,2.24,2.67v5.68ZM56,86.25H52.33v-3.1H50.08v3.1h-2v2h2V93c0,2.36,1,3.74,3.53,3.74A5.9,5.9,0,0,0,56.39,96l-.64-1.92a3.47,3.47,0,0,1-1.93.53c-1.07,0-1.49-.64-1.49-1.71v-4.6H56ZM75,86a3,3,0,0,0-2.68,1.5V86.24H70.1V96.52h2.24V90.74c0-1.71.75-2.68,2.14-2.68a6.69,6.69,0,0,1,1.4.22l.63-2.14A6.89,6.89,0,0,0,75,86ZM46.24,87.1A7.37,7.37,0,0,0,42.06,86c-2.57,0-4.28,1.29-4.28,3.32,0,1.71,1.29,2.67,3.53,3l1.07.11c1.18.21,1.82.53,1.82,1.07,0,.75-.85,1.28-2.35,1.28a5.93,5.93,0,0,1-3.43-1.07l-1.07,1.71a7.57,7.57,0,0,0,4.39,1.29c3,0,4.71-1.39,4.71-3.32s-1.39-2.78-3.53-3.1l-1.07-.11c-1-.11-1.71-.32-1.71-1s.74-1.18,1.92-1.18a7.69,7.69,0,0,1,3.21.86l1-1.82ZM106,86a3,3,0,0,0-2.68,1.5V86.24H101V96.52h2.24V90.74c0-1.71.75-2.68,2.14-2.68a6.5,6.5,0,0,1,1.39.22l.63-2.14a6.8,6.8,0,0,0-1.49-.11ZM77.28,91.38a5.13,5.13,0,0,0,5.45,5.35,5.35,5.35,0,0,0,3.64-1.17L85.3,93.74a4.33,4.33,0,0,1-2.67,1,3,3,0,0,1-3.11-3.32,3.17,3.17,0,0,1,3.11-3.32,4.35,4.35,0,0,1,2.67,1l1.07-1.82A5.31,5.31,0,0,0,82.73,86a5.13,5.13,0,0,0-5.45,5.35Zm20.75,0V86.25H95.79v1.28A3.88,3.88,0,0,0,92.58,86a5.36,5.36,0,0,0,0,10.71,3.6,3.6,0,0,0,3.21-1.5v1.29H98V91.38Zm-8.23,0a3.11,3.11,0,1,1,6.2,0,3.11,3.11,0,1,1-6.2,0ZM62.92,86A5.36,5.36,0,0,0,63,96.74a6.53,6.53,0,0,0,4.17-1.4l-1.07-1.6a5.14,5.14,0,0,1-3,1.07A2.9,2.9,0,0,1,60,92.35h7.6v-.86c.11-3.31-1.82-5.45-4.71-5.45Zm0,1.93a2.5,2.5,0,0,1,2.57,2.46H60.14A2.7,2.7,0,0,1,62.92,88Zm55.75,3.42v-9.2h-2.25v5.35a3.85,3.85,0,0,0-3.21-1.5,5.36,5.36,0,0,0,0,10.71,3.6,3.6,0,0,0,3.21-1.5v1.29h2.25V91.38Zm-8.24,0a3.11,3.11,0,1,1,6.21,0,3.11,3.11,0,1,1-6.21,0Zm-75.12,0V86.25H33.07v1.28A3.88,3.88,0,0,0,29.86,86a5.35,5.35,0,0,0,0,10.7,3.61,3.61,0,0,0,3.21-1.49v1.28h2.24V91.38Zm-8.34,0a3.11,3.11,0,1,1,6.2,0,3.11,3.11,0,1,1-6.2,0Z"/></g><rect id="rect19" class="cls-2" x="45.48" y="8.24" width="33.71" height="60.56"/><path class="cls-1" d="M47.62,38.52A38.61,38.61,0,0,1,62.28,8.24,38.51,38.51,0,1,0,38.52,77,38.3,38.3,0,0,0,62.28,68.8,38.45,38.45,0,0,1,47.62,38.52Z"/><path id="path22" class="cls-3" d="M124.66,38.52A38.48,38.48,0,0,1,62.38,68.8a38.6,38.6,0,0,0,0-60.56,38.48,38.48,0,0,1,62.28,30.28Z"/></g></g></g></g></svg>