<?xml version="1.0" encoding="utf-8"?>
<!-- Generator: Adobe Illustrator 24.0.0, SVG Export Plug-In . SVG Version: 6.00 Build 0)  -->
<svg version="1.1" id="Ebene_1" xmlns="http://www.w3.org/2000/svg" xmlns:xlink="http://www.w3.org/1999/xlink" x="0px" y="0px"
	 viewBox="0 0 32.9 32.9" style="enable-background:new 0 0 32.9 32.9;" xml:space="preserve">
<style type="text/css">
	.st0{fill:#B1B2B3;}
	.st1{enable-background:new    ;}
	.st2{fill:#FFFFFF;}
</style>
<title>6Element 3</title>
<g id="Ebene_2_1_">
	<g id="Ebene_1-2">
		<g>
			<path class="st0" d="M16.5,32.9c9.1,0,16.5-7.4,16.5-16.4C32.9,7.4,25.6,0,16.5,0S0,7.4,0,16.4c0,0,0,0,0,0
				C0,25.5,7.4,32.9,16.5,32.9"/>
		</g>
		<g class="st1">
			<path class="st2" d="M21.1,23.4h-10v-2.1l3.6-3.6c0.7-0.7,1.3-1.4,1.7-1.9c0.4-0.5,0.8-1,1-1.4s0.3-0.8,0.3-1.3
				c0-0.6-0.2-1-0.5-1.3s-0.7-0.4-1.3-0.4c-0.5,0-1.1,0.1-1.6,0.4c-0.5,0.3-1.1,0.6-1.6,1.1L11,10.9c0.4-0.3,0.8-0.7,1.3-1
				c0.5-0.3,1-0.6,1.6-0.8s1.3-0.3,2.2-0.3c0.9,0,1.7,0.2,2.4,0.5s1.2,0.8,1.6,1.4c0.4,0.6,0.5,1.2,0.5,2c0,0.8-0.2,1.5-0.5,2.2
				c-0.3,0.7-0.8,1.3-1.4,1.9c-0.6,0.6-1.3,1.3-2.1,2.1l-1.8,1.7v0.1h6.2V23.4z"/>
		</g>
	</g>
</g>
</svg>
