<svg id="Ebene_1" data-name="Ebene 1" xmlns="http://www.w3.org/2000/svg" width="123.62" height="30.2" viewBox="0 0 123.62 30.2"><defs><style>.cls-1{fill:#646464;}.cls-2{fill:#969696;}.cls-3{fill:#253b80;}.cls-4{fill:#787878;}</style></defs><title>PayPal-grau</title><path class="cls-1" d="M47,7.5H40.2a.82.82,0,0,0-.9.8L36.5,25.8a.75.75,0,0,0,.5.7h3.4a.82.82,0,0,0,.9-.8L42,21a1,1,0,0,1,.9-.8h2.2c4.5,0,7.1-2.2,7.8-6.5A5.16,5.16,0,0,0,52,9.3C51,8.1,49.3,7.5,47,7.5Zm.8,6.4c-.4,2.5-2.2,2.5-4.1,2.5h-1l.7-4.6a.56.56,0,0,1,.6-.5h.5c1.2,0,2.4,0,3,.7A2.21,2.21,0,0,1,47.8,13.9Zm19.7-.1H64.2a.63.63,0,0,0-.6.5l-.1.9-.2-.3c-.7-1-2.3-1.4-3.9-1.4a7.5,7.5,0,0,0-7.3,6.6,6.05,6.05,0,0,0,1.2,5,5,5,0,0,0,4.1,1.7,6.16,6.16,0,0,0,4.5-1.9l-.1.9a.75.75,0,0,0,.5.7h3a.82.82,0,0,0,.9-.8L68,14.4a.46.46,0,0,0-.5-.6Zm-4.6,6.4a3.59,3.59,0,0,1-3.7,3.1,2.66,2.66,0,0,1-2.2-.9,2.61,2.61,0,0,1-.5-2.3,3.68,3.68,0,0,1,3.7-3.2,2.79,2.79,0,0,1,2.2.9A3.73,3.73,0,0,1,62.9,20.2Zm22-6.4H81.6a1.23,1.23,0,0,0-.8.4l-4.5,6.7-1.9-6.4a1,1,0,0,0-.9-.7H70.3a.65.65,0,0,0-.6.6v.2l3.6,10.6L69.9,30a.61.61,0,0,0,.1.8.37.37,0,0,0,.3.1h3.3a1.23,1.23,0,0,0,.8-.4L85.3,14.7a.61.61,0,0,0-.1-.8.37.37,0,0,0-.3-.1Z" transform="translate(-0.78 -0.7)"/><path class="cls-2" d="M95.8,7.5H89a.82.82,0,0,0-.9.8L85.3,25.8a.75.75,0,0,0,.5.7h3.6a.73.73,0,0,0,.7-.6l.8-5a1,1,0,0,1,.9-.8H94c4.5,0,7.1-2.2,7.8-6.5a5.16,5.16,0,0,0-.9-4.4A7,7,0,0,0,95.8,7.5Zm.8,6.4c-.4,2.5-2.2,2.5-4.1,2.5h-1l.7-4.6a.56.56,0,0,1,.6-.5h.5c1.2,0,2.4,0,3,.7A2.63,2.63,0,0,1,96.6,13.9Zm19.6-.1H113a.63.63,0,0,0-.6.5l-.1.9-.2-.3c-.7-1-2.3-1.4-3.9-1.4a7.5,7.5,0,0,0-7.3,6.6,6.05,6.05,0,0,0,1.2,5,5,5,0,0,0,4.1,1.7,6.16,6.16,0,0,0,4.5-1.9l-.1.9a.75.75,0,0,0,.5.7h3a.82.82,0,0,0,.9-.8l1.8-11.2a.56.56,0,0,0-.6-.7Zm-4.5,6.4a3.59,3.59,0,0,1-3.7,3.1,2.79,2.79,0,0,1-2.2-.9,2.61,2.61,0,0,1-.5-2.3,3.68,3.68,0,0,1,3.7-3.2,2.79,2.79,0,0,1,2.2.9A3.73,3.73,0,0,1,111.7,20.2Zm8.4-12.3-2.8,17.9a.75.75,0,0,0,.5.7h2.9a.82.82,0,0,0,.9-.8l2.8-17.5a.75.75,0,0,0-.5-.7h-3.3A.66.66,0,0,0,120.1,7.9Z" transform="translate(-0.78 -0.7)"/><path class="cls-3" d="M8.1,29.9l.5-3.3H1.9L5.7,2A.32.32,0,0,1,6,1.7h9.4c3.1,0,5.3.6,6.4,1.9a3.91,3.91,0,0,1,1,1.9,5.67,5.67,0,0,1,0,2.6V9l.5.3a4.44,4.44,0,0,1,1.1.8,4.2,4.2,0,0,1,.9,1.9,9,9,0,0,1-.1,2.8A8.2,8.2,0,0,1,24,18a7,7,0,0,1-1.8,2,6.35,6.35,0,0,1-2.5,1.1,13.74,13.74,0,0,1-3.1.4h-.7a2.39,2.39,0,0,0-1.4.5,1.71,1.71,0,0,0-.7,1.3l-.1.3-.9,5.9v.2c0,.1,0,.1-.1.1h-.1C12.6,29.9,8.1,29.9,8.1,29.9Z" transform="translate(-0.78 -0.7)"/><path class="cls-2" d="M23.9,8.4c0,.2-.1.4-.1.6-1.2,6.4-5.5,8.5-10.9,8.5H10.1a1.3,1.3,0,0,0-1.3,1.1L7.4,27.5,7,30.1c-.1.4.2.7.6.8h5a1.19,1.19,0,0,0,1.2-1v-.2l.9-5.8.1-.3a1.19,1.19,0,0,1,1.2-1h.7c4.7,0,8.4-1.9,9.5-7.5.5-2.3.2-4.3-1-5.6A3.34,3.34,0,0,0,23.9,8.4Z" transform="translate(-0.78 -0.7)"/><path class="cls-1" d="M22.6,7.9l-1.2-.3A19.42,19.42,0,0,0,19,7.4H11.6a1.19,1.19,0,0,0-1.2,1L8.8,18.3v.3a1.29,1.29,0,0,1,1.3-1.1h2.8c5.4,0,9.6-2.2,10.9-8.5,0-.2.1-.4.1-.6a4.18,4.18,0,0,0-1-.4A.37.37,0,0,0,22.6,7.9Z" transform="translate(-0.78 -0.7)"/><path class="cls-4" d="M10.4,8.4a1.19,1.19,0,0,1,1.2-1H19a16.59,16.59,0,0,1,2.4.2,8.33,8.33,0,0,1,1.5.4,10.37,10.37,0,0,1,1,.4A5.92,5.92,0,0,0,22.6,3C21.2,1.4,18.7.7,15.4.7H6.1A1.3,1.3,0,0,0,4.8,1.8L.8,26.6a.74.74,0,0,0,.7.9H7.4l1.5-9.2Z" transform="translate(-0.78 -0.7)"/></svg>