<svg xmlns="http://www.w3.org/2000/svg" width="338.15" height="76.44" viewBox="0 0 338.15 76.44"><defs><style>.cls-1,.cls-3{fill:#054a54;}.cls-1,.cls-2{stroke:#fff;stroke-miterlimit:10;stroke-width:0.1px;}.cls-2{fill:#fab722;}</style></defs><title>5Element 1</title><g id="Ebene_2" data-name="Ebene 2"><g id="Ebene_7" data-name="Ebene 7"><path class="cls-1" d="M169.8,43.41h-5.39v22h-5.08v-22H155V39.52h4.37V37.79c0-3.29.76-5.64,2.28-7A9.08,9.08,0,0,1,168,28.67,15.32,15.32,0,0,1,171,29c-.16.9-.51,2.74-.77,4.06a9.42,9.42,0,0,0-2.06-.22q-3.79,0-3.8,5v1.68h5.39Z"/><path class="cls-1" d="M260.36,43.41H255v22h-5.08v-22h-4.37V39.52h4.37V37.79c0-3.29.76-5.64,2.28-7a9.08,9.08,0,0,1,6.36-2.09,15.32,15.32,0,0,1,3.07.29c-.16.9-.51,2.74-.77,4.06a9.42,9.42,0,0,0-2.06-.22q-3.79,0-3.8,5v1.68h5.39Z"/><path class="cls-1" d="M176.62,29.68a3.19,3.19,0,0,1,2,.67,2.71,2.71,0,0,1,.86,2.26,2.71,2.71,0,0,1-.86,2.23,3.32,3.32,0,0,1-4.08,0,2.68,2.68,0,0,1-.86-2.23,2.68,2.68,0,0,1,.86-2.26A3.23,3.23,0,0,1,176.62,29.68Zm2.5,9.84V65.39H174V39.52Z"/><path class="cls-1" d="M198,39q4.51,0,6.91,2.25t2.4,7.25V65.39h-5V49.26c0-4-1.77-6-5.33-6-2.62,0-4.44.78-5.44,2.35A12.51,12.51,0,0,0,190,52.33V65.39h-5.08V39.52h4l.72,3.46h.29a7.43,7.43,0,0,1,3.43-3A11.36,11.36,0,0,1,198,39Z"/><path class="cls-1" d="M223,39a10.19,10.19,0,0,1,7.89,3.14q2.88,3.15,2.88,8.57v2.79h-17.1a9,9,0,0,0,2.05,6.09,7.14,7.14,0,0,0,5.51,2.11,19.25,19.25,0,0,0,4.37-.45,22.59,22.59,0,0,0,3.94-1.37v4.22a17.37,17.37,0,0,1-3.87,1.32,22.93,22.93,0,0,1-4.63.41,13.72,13.72,0,0,1-6.52-1.49A10.5,10.5,0,0,1,213.06,60a15.16,15.16,0,0,1-1.58-7.3,17.08,17.08,0,0,1,1.44-7.39,10.69,10.69,0,0,1,4-4.63A11.12,11.12,0,0,1,223,39ZM223,43a5.57,5.57,0,0,0-4.32,1.77,8.32,8.32,0,0,0-1.92,5h12a8.32,8.32,0,0,0-1.44-4.92A5,5,0,0,0,223,43Z"/><path class="cls-1" d="M285.55,52.43q0,6.43-3.27,9.94a11.52,11.52,0,0,1-8.83,3.5,12,12,0,0,1-6.15-1.56,10.92,10.92,0,0,1-4.22-4.56,15.84,15.84,0,0,1-1.54-7.32q0-6.43,3.22-9.91A11.47,11.47,0,0,1,273.59,39a12.12,12.12,0,0,1,6.2,1.56A10.86,10.86,0,0,1,284,45.14,15.66,15.66,0,0,1,285.55,52.43Zm-18.84,0a12.19,12.19,0,0,0,1.64,6.82,6.73,6.73,0,0,0,10.39,0,12.19,12.19,0,0,0,1.64-6.82,11.91,11.91,0,0,0-1.64-6.79,5.92,5.92,0,0,0-5.24-2.38,5.82,5.82,0,0,0-5.18,2.38A12.08,12.08,0,0,0,266.71,52.43Z"/><path class="cls-1" d="M312.33,52.43q0,6.43-3.28,9.94a11.52,11.52,0,0,1-8.83,3.5,12,12,0,0,1-6.15-1.56,10.92,10.92,0,0,1-4.22-4.56,15.84,15.84,0,0,1-1.54-7.32q0-6.43,3.22-9.91A11.47,11.47,0,0,1,300.36,39a12.1,12.1,0,0,1,6.2,1.56,10.86,10.86,0,0,1,4.22,4.54A15.66,15.66,0,0,1,312.33,52.43Zm-18.85,0a12.19,12.19,0,0,0,1.64,6.82,6.73,6.73,0,0,0,10.39,0,12.11,12.11,0,0,0,1.64-6.82c0-2.94-.54-5.21-1.64-6.79a5.92,5.92,0,0,0-5.24-2.38,5.81,5.81,0,0,0-5.17,2.38A12,12,0,0,0,293.48,52.43Z"/><path class="cls-1" d="M325.33,65.87a9.21,9.21,0,0,1-7.45-3.36q-2.81-3.36-2.8-10t2.85-10.08a9.31,9.31,0,0,1,7.5-3.41,9.19,9.19,0,0,1,4.74,1.1,9.75,9.75,0,0,1,3,2.69h.29c-.06-.45-.14-1.1-.24-2a22.13,22.13,0,0,1-.14-2.25v-9.7h5V65.39h-3.94l-.85-3.45h-.24a9.69,9.69,0,0,1-2.94,2.78A9,9,0,0,1,325.33,65.87Zm1.19-4.17q3.71,0,5.2-2.07c1-1.37,1.51-3.47,1.54-6.29v-.76a13.57,13.57,0,0,0-1.45-7q-1.44-2.4-5.34-2.4a5.13,5.13,0,0,0-4.65,2.49,13,13,0,0,0-1.57,6.91,12.09,12.09,0,0,0,1.57,6.72A5.27,5.27,0,0,0,326.52,61.7Z"/><path class="cls-2" d="M13,38.52a9.37,9.37,0,0,1,7.54,3.36q2.82,3.36,2.83,10t-2.88,10a9.36,9.36,0,0,1-7.54,3.43,9.53,9.53,0,0,1-4.8-1.08,9.52,9.52,0,0,1-3-2.57H4.8c.07.58.14,1.26.22,2a20.93,20.93,0,0,1,.12,2.09V76.39H.05V39H4.18l.72,3.46h.24a9.64,9.64,0,0,1,3-2.79A9.1,9.1,0,0,1,13,38.52Zm-1.2,4.18c-2.4,0-4.09.68-5.09,2.06s-1.5,3.49-1.53,6.34v.76a13.53,13.53,0,0,0,1.44,6.91Q8,61.19,11.86,61.18a5.09,5.09,0,0,0,4.7-2.6,13.2,13.2,0,0,0,1.54-6.77,12.33,12.33,0,0,0-1.56-6.67A5.27,5.27,0,0,0,11.76,42.7Z"/><path class="cls-2" d="M37.64,38.52a10.19,10.19,0,0,1,7.89,3.14c1.92,2.1,3.88,5,3.88,8.57V53H31.31a8.94,8.94,0,0,0,2.06,6.09,7.11,7.11,0,0,0,5.5,2.11,19.19,19.19,0,0,0,4.37-.45,22.68,22.68,0,0,0,3.95-1.37v4.22a17.62,17.62,0,0,1-3.88,1.32,22.86,22.86,0,0,1-4.63.41,13.72,13.72,0,0,1-6.52-1.49,10.5,10.5,0,0,1-4.42-4.41,15.28,15.28,0,0,1-1.58-7.3,17.08,17.08,0,0,1,1.44-7.39,10.69,10.69,0,0,1,4-4.63A11.12,11.12,0,0,1,37.64,38.52Zm0,3.94a5.6,5.6,0,0,0-4.32,1.77,8.25,8.25,0,0,0-1.91,5h12A8.32,8.32,0,0,0,42,44.35,5,5,0,0,0,37.64,42.46Z"/><path class="cls-2" d="M63.22,61.22a11.24,11.24,0,0,0,3.88-.62v3.84a9.43,9.43,0,0,1-2.2.65,15.49,15.49,0,0,1-2.79.26,10.05,10.05,0,0,1-3.86-.72,5.78,5.78,0,0,1-2.81-2.49,9.79,9.79,0,0,1-1.06-5V42.89h-3.6V39l3.8,0,1.77-6.78h3.12V39h6.39v3.89H59.47V57.1a4.25,4.25,0,0,0,1,3.12A3.74,3.74,0,0,0,63.22,61.22Z"/><path class="cls-2" d="M89.23,57.58a6.66,6.66,0,0,1-2.76,5.8c-1.84,1.32-4.42,2-7.75,2A25.13,25.13,0,0,1,74,65a14.36,14.36,0,0,1-3.58-1.2V59.3a24.5,24.5,0,0,0,4,1.47,16.29,16.29,0,0,0,4.44.65A7.29,7.29,0,0,0,83,60.5a2.86,2.86,0,0,0,1.27-2.44,2.67,2.67,0,0,0-.48-1.56A5.25,5.25,0,0,0,82,55.06a28.78,28.78,0,0,0-3.87-1.71,27.81,27.81,0,0,1-4.2-2A7.8,7.8,0,0,1,71.33,49a6.22,6.22,0,0,1-.91-3.5,5.82,5.82,0,0,1,2.71-5.16,12.78,12.78,0,0,1,7.17-1.8,19.75,19.75,0,0,1,4.44.48,23,23,0,0,1,4.06,1.34l-1.68,3.89A27.27,27.27,0,0,0,83.66,43a12.94,12.94,0,0,0-3.6-.51c-3.13,0-4.7.92-4.7,2.74a2.38,2.38,0,0,0,.55,1.58,5.85,5.85,0,0,0,1.92,1.35c.91.45,2.19,1,3.82,1.63a28.66,28.66,0,0,1,4,1.9,7.48,7.48,0,0,1,2.62,2.37A6.27,6.27,0,0,1,89.23,57.58Z"/><path class="cls-3" d="M155.17,20.72c-.29-1.32-1.53-6.76-1.78-7.49-1.28-3.68-3-3.83-6.62-2.78a103.48,103.48,0,0,1-10.41,1.43c-1.54,0-5.09.09-6.59.15h0v0L126,0l-2.44,3.84c-.13.25-3.28,6.19-10.69,14.59a56,56,0,0,0-13.16,27C99,49.68,97,62.92,97,65.39h4.13l6.4-10.67a14.57,14.57,0,0,0,2.44-5.15L110,49c.26-1.93.81-5.94,2-7.76a28.84,28.84,0,0,1,2.8-3.4l.05,0,0,0,2.25,3.74,4-2.93,1.24,4.41,4.16-.07v0a14.56,14.56,0,0,1,1,4.79c0,2.27-.82,6.2-5.94,6.94h-.11l0,.11s-.17.76-.4,1.55c-.28,1,.79,3.12,1.74,4.76,1.09,1.89,2.59,4.06,3,4.16h4.51a17.77,17.77,0,0,0-2.38-4.5l-.43-.53A7,7,0,0,1,126,58v0l0,0c3.84-1.8,5.85-5.29,5.81-10.1a26.91,26.91,0,0,0-2-7.83l-.59-1.2-3.63.06v0L123.46,32l-5.16,2.92,0,0-3-3.55-.11.12a98.68,98.68,0,0,0-6.53,7.5c-1.8,2.64-2.42,7.14-2.75,9.56l-.07.52a10.22,10.22,0,0,1-1.19,2.41l-2.52,4.43,0-.22c0-.46.07-1,.11-1.55l0-.47a28.45,28.45,0,0,1,1.1-5.25c.25-.93.47-1.73.56-2.29,1-6.46,4.69-16.38,12.16-24.84a105.63,105.63,0,0,0,8.66-11.15l.06-.09,0,.1,1.84,6.3,1.68-.07s5.81-.21,8.06-.21a83.43,83.43,0,0,0,10.31-1c1.52-.46,2.43-.66,2.84-.41.25.15.41.51.56,1.22.09.46.24,1.37.4,2.34l.05.29c.2,1.25.42,2.54.55,3.13s.27,5.5-3.42,7.58c-.84.47-1.73,1-2.51,1.45l-.11.07c-2.67,1.56-7.05,3.59-8,3.13l-.06,0c-1-.37-3.24-1.23-3.79-1.48l-.2-.09v.22a11.68,11.68,0,0,0,.7,3.4l.52,1.3c.38,1,1.44,3.9,3.28,8.38,1.94,4.72-.05,13.8-.69,16-.16.56-.57,2.86-.81,3.84h4.66c0-.13,3.82-13.32.74-21.4-.41-1.07-.82-2.21-1.11-3-.36-1-.69-1.91-1-2.62l0-.05,0,0a38.18,38.18,0,0,0,7.83-3.91c.92-.53,1.74-1,2.56-1.47C155.68,29.53,155.53,22.33,155.17,20.72Z"/></g></g></svg>