<?xml version="1.0" encoding="utf-8"?>
<!-- Generator: Adobe Illustrator 24.0.0, SVG Export Plug-In . SVG Version: 6.00 Build 0)  -->
<svg version="1.1" id="Ebene_1" xmlns="http://www.w3.org/2000/svg" xmlns:xlink="http://www.w3.org/1999/xlink" x="0px" y="0px"
	 viewBox="0 0 47.8 47.8" style="enable-background:new 0 0 47.8 47.8;" xml:space="preserve">
<style type="text/css">
	.st0{fill:#E5806D;}
	.st1{fill:#DE5C4D;}
	.st2{fill:#FFFFFF;}
</style>
<title>5Element 3</title>
<g id="Ebene_2_1_">
	<g id="Ebene_1-2">
		<path class="st0" d="M23.9,47.8c13.2,0,23.9-10.7,23.9-23.9C47.8,10.7,37.1,0,23.9,0S0,10.7,0,23.9c0,0,0,0,0,0
			C0,37.1,10.7,47.8,23.9,47.8"/>
		<path class="st1" d="M11.8,8.8c0.4,0,0.9,0.2,1.2,0.5c0.3,0.3,0.5,0.7,0.5,1.1v22.3c0,0.2-0.1,0.4-0.2,0.6
			c-0.2,0.1-0.4,0.2-0.6,0.2h-1.7c-0.2,0-0.5-0.1-0.6-0.2C10.1,33,10,32.8,10,32.6V10.3c0-0.4,0.2-0.8,0.5-1.1
			C10.9,8.9,11.3,8.7,11.8,8.8z M24.3,9.3c1.1,0.4,2,0.7,2.6,0.8c0.9,0.2,1.9,0.4,2.8,0.4c1.9-0.1,3.7-0.5,5.4-1.4
			c0.8-0.4,0.8,0.5,0.8,0.5v3.6c-1.4,0.9-2.9,1.5-4.4,1.8c-1.2,0.2-2.4,0.2-3.5,0c-1.1-0.2-2.1-0.5-3.2-0.9c-1-0.4-2.1-0.7-3.2-0.9
			c-1.2-0.3-2.5-0.4-3.8-0.2c-1.6,0.3-3.1,0.8-4.6,1.6v-4.5c1.4-0.9,2.9-1.5,4.4-1.8c1.2-0.2,2.4-0.2,3.5,0
			C22.2,8.6,23.2,8.9,24.3,9.3z M24.3,17.8c1.1,0.4,2,0.7,2.6,0.8c0.9,0.2,1.9,0.4,2.8,0.4c2.2-0.1,4.2-0.7,6.1-1.8v2.7
			c0,0.4-0.1,0.9-0.3,1.3c-0.2,0.4-0.4,0.7-0.7,0.9c-1.3,0.8-2.7,1.3-4.2,1.5c-1.1,0.2-2.2,0.2-3.3-0.1c-1-0.3-2-0.6-2.9-1
			c-1-0.4-2.1-0.7-3.1-1c-1.2-0.2-2.5-0.2-3.7,0c-1.6,0.4-3.2,1.2-4.6,2.1v-5c1.4-0.8,2.9-1.4,4.4-1.8c1.2-0.2,2.4-0.2,3.5,0
			C22.2,17,23.2,17.4,24.3,17.8z"/>
		<rect x="34.8" y="9.5" class="st1" width="1" height="7.7"/>
		<path class="st2" d="M7.9,25c0.8-0.1,1.7,0.2,2.4,0.6c0.5,0.5,0.8,1.2,0.8,1.9c0,0.3-0.1,0.7-0.2,1c-0.1,0.3-0.3,0.5-0.6,0.7
			c-0.2,0.2-0.5,0.4-0.7,0.5l2.3,3.7h-1.9l-1.9-3.2H7.3v3.2H5.6V25H7.9z M7.8,26.5H7.3v2.3h0.5c0.4,0,0.8-0.1,1.2-0.3
			c0.3-0.2,0.4-0.5,0.4-0.9c0-0.3-0.1-0.7-0.4-0.9C8.6,26.5,8.2,26.4,7.8,26.5L7.8,26.5z"/>
		<path class="st2" d="M15.3,26.9c0.7,0,1.5,0.2,2,0.8c0.5,0.6,0.7,1.4,0.7,2.2v0.9h-3.9c0,0.4,0.1,0.8,0.4,1.2
			c0.3,0.3,0.7,0.4,1.1,0.4c0.4,0,0.7,0,1.1-0.1c0.3-0.1,0.7-0.2,1-0.4v1.4c-0.3,0.2-0.6,0.3-1,0.3c-0.4,0.1-0.8,0.1-1.2,0.1
			c-0.6,0-1.1-0.1-1.6-0.4c-0.5-0.2-0.9-0.6-1.1-1.1c-0.3-0.6-0.4-1.2-0.4-1.8c0-0.6,0.1-1.3,0.4-1.9c0.2-0.5,0.6-0.9,1-1.1
			C14.3,27,14.8,26.9,15.3,26.9z M15.3,28.1c-0.3,0-0.6,0.1-0.8,0.3c-0.2,0.3-0.4,0.6-0.4,1h2.3c0-0.4-0.1-0.7-0.3-1
			C16,28.2,15.6,28.1,15.3,28.1L15.3,28.1z"/>
		<path class="st2" d="M21.4,26.9c0.7,0,1.4,0.3,1.8,0.9l0,0l0.1-0.8h1.4v6.4c0.1,0.8-0.2,1.5-0.8,2.1c-0.6,0.5-1.5,0.8-2.3,0.7
			c-0.4,0-0.8,0-1.2-0.1c-0.4-0.1-0.7-0.1-1.1-0.3v-1.4c0.7,0.3,1.6,0.5,2.4,0.5c0.9,0,1.3-0.5,1.3-1.5v-0.1c0-0.1,0-0.3,0-0.4
			c0-0.1,0-0.3,0-0.4H23c-0.2,0.3-0.4,0.6-0.8,0.7c-0.3,0.2-0.7,0.2-1,0.2c-0.7,0-1.3-0.3-1.7-0.9c-0.4-0.7-0.6-1.6-0.5-2.4
			c-0.1-0.9,0.2-1.7,0.6-2.5C20,27.2,20.7,26.8,21.4,26.9z M21.9,28.3c-0.8,0-1.2,0.7-1.2,1.9s0.4,1.9,1.2,1.9c0.4,0,0.7-0.1,1-0.4
			c0.2-0.4,0.3-0.9,0.3-1.3v-0.2c0-0.5-0.1-1-0.3-1.5C22.6,28.4,22.3,28.2,21.9,28.3z"/>
		<path class="st2" d="M27.3,24.5c0.2,0,0.4,0.1,0.6,0.2c0.3,0.4,0.3,1,0,1.4c-0.2,0.1-0.4,0.2-0.6,0.2c-0.2,0-0.5-0.1-0.6-0.2
			c-0.3-0.4-0.3-1,0-1.4C26.8,24.5,27.1,24.5,27.3,24.5z M28.1,27v6.4h-1.7V27H28.1z"/>
		<path class="st2" d="M35.4,30.2c0.1,0.9-0.2,1.8-0.8,2.5c-0.6,0.6-1.4,0.9-2.2,0.9c-0.5,0-1.1-0.1-1.5-0.4c-0.4-0.3-0.8-0.7-1-1.1
			c-0.3-0.6-0.4-1.2-0.4-1.8c-0.1-0.9,0.2-1.8,0.8-2.5c0.6-0.6,1.4-0.9,2.2-0.9c0.5,0,1.1,0.1,1.5,0.4c0.4,0.3,0.8,0.7,1,1.1
			C35.3,28.9,35.4,29.6,35.4,30.2z M31.2,30.2c0,0.5,0.1,1,0.3,1.4c0.4,0.5,1.1,0.6,1.7,0.3c0.1-0.1,0.2-0.2,0.3-0.3
			c0.2-0.4,0.3-0.9,0.3-1.4c0-0.5-0.1-1-0.3-1.4c-0.2-0.3-0.6-0.5-1-0.5c-0.4,0-0.8,0.2-1,0.5C31.2,29.2,31.1,29.7,31.2,30.2z"/>
		<path class="st2" d="M40.2,26.9c0.6,0,1.1,0.2,1.6,0.6c0.4,0.5,0.7,1.1,0.6,1.8v4.2h-1.7v-3.7c0-0.3-0.1-0.7-0.2-1
			c-0.2-0.2-0.5-0.4-0.8-0.4c-0.4,0-0.8,0.2-1,0.6c-0.2,0.5-0.3,1-0.3,1.6v3h-1.7V27H38l0.2,0.8h0.1c0.2-0.3,0.5-0.6,0.8-0.7
			C39.5,26.9,39.8,26.9,40.2,26.9z"/>
	</g>
</g>
</svg>
