<svg id="Layer_1" data-name="Layer 1" xmlns="http://www.w3.org/2000/svg" width="301.6" height="82.5" viewBox="0 0 301.6 82.5"><defs><style>.cls-1{fill:#656564;}.cls-2{fill:#969696;}</style></defs><title>SepaLogo</title><path class="cls-1" d="M72.1,29.8H51.5c0-3.4-.4-5.7-1.2-6.8-1.2-1.7-4.6-2.6-10.2-2.6-5.4,0-9,.5-10.7,1.5s-2.6,3.1-2.6,6.5c0,3,.8,5,2.3,5.9a9.17,9.17,0,0,0,4.4,1.2l4.2.3c8.9.6,14.5,1,16.7,1.2,7.1.7,12.2,2.6,15.3,5.6a15.2,15.2,0,0,1,4.5,9.3,61.42,61.42,0,0,1,.4,7.8c0,6.6-.6,11.5-1.9,14.6C70.4,80,65.2,83.5,57.2,85a93.62,93.62,0,0,1-15.4,1c-11.6,0-19.6-.7-24.2-2.1-5.6-1.7-9.3-5.1-11-10.3Q5.1,69.25,5.1,59.2H25.7v1.7c0,3.6,1,5.9,3.1,6.9A11.44,11.44,0,0,0,34,68.9h7.6c3.9,0,6.3-.2,7.4-.6a5.77,5.77,0,0,0,3.7-3.6,14,14,0,0,0,.5-4c0-3.6-1.3-5.8-4-6.6-1-.3-5.6-.7-13.8-1.3-6.6-.5-11.2-.9-13.7-1.4Q11.5,49.45,8.2,43.6c-2-3.4-3-8.4-3-15.2,0-5.2.5-9.3,1.6-12.4A13.69,13.69,0,0,1,12,8.9C15.5,6.4,19.9,5,25.3,4.5q6.75-.6,15-.6c8.7,0,14.8.5,18.5,1.5,9,2.4,13.5,9.2,13.5,20.3C72.3,26.6,72.2,27.9,72.1,29.8Z" transform="translate(-5.1 -3.5)"/><path class="cls-1" d="M162.9,85.9V3.5h41.3a47.3,47.3,0,0,1,13,1.4A20,20,0,0,1,230.9,18q1.8,5.25,1.8,15.6c0,8.4-.7,14.4-2,18-2.7,7.2-8.1,11.4-16.3,12.5-1,.2-5.1.3-12.4.4l-3.7.1H185V85.9ZM185,45.5h13.8c4.4-.2,7.1-.5,8-1,1.3-.7,2.2-2.2,2.6-4.3a34.6,34.6,0,0,0,.4-6.4A29.39,29.39,0,0,0,209,26c-.8-2.4-2.7-3.8-5.7-4.3a40.37,40.37,0,0,0-4.3-.1H185Z" transform="translate(-5.1 -3.5)"/><path class="cls-1" d="M280,71.7H250.3l-4,14.2h-23L248.1,3.5h33.5l25.1,82.4H284.2Zm-4.4-16.1L265.2,19.9,255.1,55.6Z" transform="translate(-5.1 -3.5)"/><path class="cls-2" d="M132.2,15.1a29.31,29.31,0,0,1,22.7,10.8l4.8-10.3A42.34,42.34,0,0,0,130.8,4.2,41.72,41.72,0,0,0,92.2,29.7H82.9L77.4,41.5h12c-.1,1.1-.1,2.2-.1,3.3,0,1.4.1,2.7.2,4h-6L78,60.6H92.6a41.57,41.57,0,0,0,38.3,24.8,42.41,42.41,0,0,0,23.4-7V63.9a29.21,29.21,0,0,1-46.5-3.3h30.6l5.5-11.8H103.3a31.45,31.45,0,0,1-.3-4.4c0-1,.1-2,.1-3h44.2l5.5-11.8H107A29.16,29.16,0,0,1,132.2,15.1Z" transform="translate(-5.1 -3.5)"/><path class="cls-1" d="M132.2,15.4a28.74,28.74,0,0,1,22.4,10.7l.4.4.2-.5L160,15.7l.1-.2-.2-.2A42.58,42.58,0,0,0,107.1,11,41.54,41.54,0,0,0,91.9,29.5l.3-.2H82.7l-.1.2L77.1,41.3l-.2.5H89.5l-.4-.4c-.1,1.2-.1,2.3-.1,3.3,0,1.3.1,2.7.2,4l.4-.4H83.4l-.1.2L77.8,60.3l-.4.7H92.6l-.3-.2a41.84,41.84,0,0,0,38.6,25,42.76,42.76,0,0,0,23.6-7.1l.2-.1V63l-.6.7a28.91,28.91,0,0,1-45.9-3.3l-.3.5h30.8l.1-.2,5.5-11.8.2-.5H103.3l.4.3a31.08,31.08,0,0,1-.3-4.3,27.15,27.15,0,0,1,.1-2.9l-.4.3h44.4l.1-.2,5.5-11.8.2-.5H106.9l.3.5A29.31,29.31,0,0,1,132.2,15.4ZM106.9,30.1h45.8l-.3-.5L147,41.4l.3-.2H102.8v.3c-.1,1-.1,2-.1,3a32.53,32.53,0,0,0,.3,4.4v.3h40.9l-.3-.5L138,60.5l.3-.2H107l.4.5a29.56,29.56,0,0,0,47,3.3l-.6-.2V78.4l.2-.3A41.74,41.74,0,0,1,92.8,60.5l-.1-.2H77.9l.3.5L83.8,49l-.3.2h6.4v-.4c-.1-1.3-.2-2.7-.2-4,0-1,0-2.1.1-3.3v-.4H77.4l.3.5,5.5-11.8-.3.2h9.5l.1-.2a40.12,40.12,0,0,1,14.9-18.2,42,42,0,0,1,23.3-7.1,41.42,41.42,0,0,1,28.6,11.3l-.1-.4-4.8,10.3.6-.1a29.35,29.35,0,0,0-23-10.9,29.77,29.77,0,0,0-25.6,14.8l-.3.5h.8Z" transform="translate(-5.1 -3.5)"/></svg>