<?xml version="1.0" encoding="utf-8"?>
<!-- Generator: Adobe Illustrator 24.0.0, SVG Export Plug-In . SVG Version: 6.00 Build 0)  -->
<svg version="1.1" id="Ebene_1" xmlns="http://www.w3.org/2000/svg" xmlns:xlink="http://www.w3.org/1999/xlink" x="0px" y="0px"
	 viewBox="0 0 19.3 22" style="enable-background:new 0 0 19.3 22;" xml:space="preserve">
<style type="text/css">
	.st0{fill:#004959;}
</style>
<title>5Element 2</title>
<g id="Ebene_2_1_">
	<g id="Ebene_1-2">
		<path class="st0" d="M17.2,18.6c0,0.8-0.6,1.4-1.4,1.4l0,0H3.4c-0.8,0-1.4-0.6-1.4-1.4l0,0v-11h2.1v1.7c0,0.6,0.5,1,1,1s1-0.5,1-1
			V7.6h6.9v1.7c0,0.6,0.5,1,1,1s1-0.5,1-1V7.6h2.1V18.6z M9.6,2c1.9,0,3.4,1.5,3.4,3.4l0,0H6.2C6.2,3.6,7.7,2,9.6,2 M15.1,5.5
			c0-3-2.5-5.5-5.5-5.5S4.1,2.4,4.1,5.5H0v13.1C0,20.4,1.5,22,3.4,22l0,0h12.4c1.9,0,3.4-1.5,3.4-3.4l0,0v-13L15.1,5.5z"/>
	</g>
</g>
</svg>
