<?xml version="1.0" encoding="utf-8"?>
<!-- Generator: Adobe Illustrator 24.0.0, SVG Export Plug-In . SVG Version: 6.00 Build 0)  -->
<svg version="1.1" id="Ebene_1" xmlns="http://www.w3.org/2000/svg" xmlns:xlink="http://www.w3.org/1999/xlink" x="0px" y="0px"
	 viewBox="0 0 20.4 162.9" style="enable-background:new 0 0 20.4 162.9;" xml:space="preserve">
<style type="text/css">
	.st0{fill:#222C2C;}
	.st1{fill:#004959;}
	.st2{fill:#FFFFFF;}
</style>
<title>5Element 4</title>
<g id="Ebene_2_1_">
	<g id="Ebene_1-2">
		<rect x="9.5" y="15.5" class="st0" width="1.1" height="132.7"/>
		<path class="st1" d="M10.4,20c5.5,0,10-4.5,10-10s-4.5-10-10-10s-10,4.5-10,10S4.9,20,10.4,20"/>
		<path class="st2" d="M11.5,14H9.6V9c0-0.2,0-0.5,0-0.8c0-0.3,0-0.7,0-0.9c0,0-0.1,0.1-0.3,0.3L9,7.9L8,8.7L7.1,7.6L10,5.3h1.5
			L11.5,14z"/>
		<g id="Ebene_2-2">
			<g id="Ebene_1-2-2">
				<path class="st1" d="M10,92.9c5.5,0,10-4.5,10-10s-4.5-10-10-10s-10,4.5-10,10S4.5,92.9,10,92.9"/>
				<path class="st2" d="M12.6,86.9h-6v-1.3l2.2-2.2c0.4-0.5,0.7-0.9,1-1.2c0.2-0.2,0.4-0.5,0.6-0.8c0.1-0.2,0.2-0.5,0.2-0.8
					c0-0.3-0.1-0.5-0.3-0.7c-0.2-0.2-0.5-0.3-0.8-0.3c-0.3,0-0.7,0.1-1,0.2c-0.4,0.2-0.7,0.4-1,0.7l-1-1.2c0.2-0.2,0.5-0.4,0.7-0.6
					c0.3-0.2,0.7-0.4,1-0.5C8.6,78.1,9.1,78,9.5,78c0.5,0,1,0.1,1.4,0.3c0.4,0.2,0.7,0.5,1,0.8c0.2,0.4,0.3,0.8,0.3,1.2
					c0,0.5-0.1,0.9-0.3,1.3c-0.2,0.4-0.5,0.8-0.8,1.2l-1.3,1.3l-1.1,1.1v0.1h3.8v1.6L12.6,86.9z"/>
			</g>
		</g>
		<g id="Ebene_2-3">
			<g id="Ebene_1-2-3">
				<path class="st1" d="M10,162.9c5.5,0,10-4.5,10-10s-4.5-10-10-10s-10,4.5-10,10S4.5,162.9,10,162.9"/>
				<path class="st2" d="M12.7,150.5c0,0.5-0.2,1-0.5,1.4c-0.3,0.4-0.8,0.6-1.3,0.7l0,0c0.6,0,1.1,0.3,1.6,0.6
					c0.4,0.4,0.6,0.9,0.6,1.4c0,0.5-0.1,1-0.4,1.4c-0.3,0.4-0.6,0.7-1.1,0.9c-0.6,0.3-1.3,0.4-2,0.3c-0.9,0-1.7-0.1-2.5-0.4v-1.6
					c0.4,0.2,0.8,0.3,1.2,0.4c0.3,0.2,0.6,0.3,1,0.3c0.5,0,1-0.1,1.4-0.3c0.3-0.3,0.4-0.6,0.4-1c0-0.2-0.1-0.4-0.2-0.6
					c-0.2-0.2-0.4-0.3-0.6-0.4c-0.4-0.1-0.8-0.1-1.2-0.1H8.3V152H9c0.4,0,0.8,0,1.2-0.1c0.2-0.1,0.4-0.2,0.6-0.4
					c0.1-0.2,0.2-0.4,0.1-0.6c0-0.3-0.1-0.5-0.3-0.7c-0.3-0.2-0.6-0.3-1-0.3c-0.3,0-0.7,0.1-1,0.2c-0.3,0.1-0.5,0.2-0.8,0.4L7,149.3
					c0.4-0.3,0.8-0.5,1.2-0.6c0.5-0.2,1.1-0.3,1.6-0.2c0.7,0,1.5,0.1,2.1,0.5C12.4,149.3,12.7,149.9,12.7,150.5z"/>
			</g>
		</g>
	</g>
</g>
</svg>
