<?xml version="1.0" encoding="utf-8"?>
<!-- Generator: Adobe Illustrator 24.0.0, SVG Export Plug-In . SVG Version: 6.00 Build 0)  -->
<svg version="1.1" id="Ebene_1" xmlns="http://www.w3.org/2000/svg" xmlns:xlink="http://www.w3.org/1999/xlink" x="0px" y="0px"
	 viewBox="0 0 170.6 32.9" style="enable-background:new 0 0 170.6 32.9;" xml:space="preserve">
<style type="text/css">
	.st0{clip-path:url(#SVGID_2_);}
	.st1{fill:#222C2C;}
	.st2{fill:#004959;}
	.st3{fill:#FFFFFF;}
</style>
<title>5Element 2</title>
<g id="Ebene_2_1_">
	<g id="Ebene_1-2">
		<g>
			<defs>
				<rect id="SVGID_1_" y="-7" width="170.6" height="40.9"/>
			</defs>
			<clipPath id="SVGID_2_">
				<use xlink:href="#SVGID_1_"  style="overflow:visible;"/>
			</clipPath>
			<g class="st0">
				<rect y="15.9" class="st1" width="170.6" height="1.1"/>
				<path class="st2" d="M85.3,32.9c9.1,0,16.5-7.4,16.5-16.5S94.4,0,85.3,0S68.8,7.4,68.8,16.5l0,0C68.8,25.6,76.2,32.9,85.3,32.9"
					/>
			</g>
		</g>
		<path class="st3" d="M89.9,23.4h-10v-2.1l3.6-3.6c0.7-0.8,1.3-1.4,1.7-1.9c0.4-0.4,0.7-0.9,1-1.4c0.2-0.4,0.3-0.9,0.3-1.3
			c0-0.5-0.1-0.9-0.5-1.3c-0.4-0.3-0.8-0.4-1.3-0.4c-0.6,0-1.1,0.1-1.6,0.4c-0.6,0.3-1.1,0.7-1.6,1.1l-1.6-1.9
			c0.4-0.4,0.8-0.7,1.3-1c0.5-0.3,1-0.6,1.6-0.8C83.5,9,84.2,8.9,85,8.9c0.8,0,1.7,0.2,2.4,0.5c0.6,0.3,1.2,0.8,1.6,1.4
			c0.4,0.6,0.6,1.3,0.6,2c0,0.7-0.2,1.5-0.5,2.1c-0.4,0.7-0.8,1.4-1.4,1.9c-0.6,0.6-1.3,1.3-2.2,2.1l-1.8,1.7v0.1h6.2V23.4z"/>
	</g>
</g>
</svg>
